<?xml version="1.0" encoding="iso-8859-1"?>
<!-- Generator: Adobe Illustrator 19.0.0, SVG Export Plug-In . SVG Version: 6.00 Build 0)  -->
<svg version="1.1" fill="red" id="Layer_1" xmlns="http://www.w3.org/2000/svg" xmlns:xlink="http://www.w3.org/1999/xlink" x="0px" y="0px"
	 viewBox="0 0 460 460" style="enable-background:new 0 0 460 460;" xml:space="preserve">
<g>
	<g>
		<path d="M393.945,0H66.054C50.4,0,37.708,12.691,37.708,28.346v403.307C37.708,447.309,50.4,460,66.054,460h327.89
			c15.655,0,28.347-12.691,28.347-28.346V28.346C422.291,12.691,409.6,0,393.945,0z M357.255,176.743L218.507,315.489
			c-4.88,4.879-11.278,7.322-17.679,7.322c-6.333,0-12.668-2.392-17.535-7.182l-76.197-74.989
			c-9.841-9.684-9.967-25.513-0.282-35.354c9.686-9.842,25.515-9.966,35.354-0.283l58.521,57.593l121.21-121.21
			c9.763-9.762,25.593-9.763,35.355,0C367.018,151.15,367.018,166.98,357.255,176.743z"/>
	</g>
</g>
<g>
</g>
<g>
</g>
<g>
</g>
<g>
</g>
<g>
</g>
<g>
</g>
<g>
</g>
<g>
</g>
<g>
</g>
<g>
</g>
<g>
</g>
<g>
</g>
<g>
</g>
<g>
</g>
<g>
</g>
</svg>
