<svg xmlns="http://www.w3.org/2000/svg" viewBox="0 0 500 500"><g id="freepik--background-simple--inject-9"><path d="M334.48,37.63S256.71,10.13,180.27,54.2,65.17,185.59,32,255.55s-14.25,141,44,173.36,98-15.51,179.76-18,103.77,9.19,171.71-37S507.81,218.8,454.39,138.3,334.48,37.63,334.48,37.63Z" style="fill:#FFA500"></path><path d="M334.48,37.63S256.71,10.13,180.27,54.2,65.17,185.59,32,255.55s-14.25,141,44,173.36,98-15.51,179.76-18,103.77,9.19,171.71-37S507.81,218.8,454.39,138.3,334.48,37.63,334.48,37.63Z" style="fill:#fff;opacity:0.7000000000000001"></path></g><g id="freepik--Floor--inject-9"><ellipse cx="255" cy="458" rx="232" ry="23" style="opacity:0.27"></ellipse></g><g id="freepik--Decoration--inject-9"><g style="opacity:0.2"><path d="M206.68,39.69s-5.48,14-15.22,24.35-25,16.44-25,16.44,16.44,12.17,17.05,43.22c0,0,29.22-.61,37.74,25,0,0,14-20.09,49.92-20.7,0,0-3-26.18,22.52-39,0,0-23.74-11-24.35-44.44C269.38,44.56,227.38,60.39,206.68,39.69Z" style="fill:none;stroke:#000;stroke-linecap:round;stroke-linejoin:round;stroke-width:2px"></path><path d="M214,56.74s-3.76,9.62-10.46,16.73S186.4,84.76,186.4,84.76s11.3,8.37,11.71,29.7c0,0,20.08-.42,25.94,17.15,0,0,9.62-13.8,34.3-14.22,0,0-2.09-18,15.48-26.77,0,0-16.32-7.53-16.73-30.54C257.1,60.08,228.23,71,214,56.74Z" style="fill:none;stroke:#000;stroke-linecap:round;stroke-linejoin:round;stroke-width:2px"></path><path d="M222.13,75.61a29.6,29.6,0,0,1-5.19,8.3,27.56,27.56,0,0,1-8.5,5.6s5.6,4.15,5.81,14.73c0,0,9.95-.21,12.86,8.5,0,0,4.77-6.84,17-7a13.66,13.66,0,0,1,7.67-13.28s-8.09-3.73-8.29-15.14C243.5,77.27,229.18,82.66,222.13,75.61Z" style="fill:none;stroke:#000;stroke-linecap:round;stroke-linejoin:round;stroke-width:2px"></path><path d="M226.84,86.56A12.07,12.07,0,0,1,224.72,90a11.27,11.27,0,0,1-3.49,2.29s2.3,1.7,2.38,6c0,0,4.08-.09,5.27,3.48,0,0,2-2.8,7-2.89A5.61,5.61,0,0,1,239,93.45a6.78,6.78,0,0,1-3.4-6.2S229.73,89.46,226.84,86.56Z" style="fill:none;stroke:#000;stroke-linecap:round;stroke-linejoin:round;stroke-width:2px"></path><line x1="203.63" y1="31.17" x2="226.84" y2="86.56" style="fill:none;stroke:#000;stroke-linecap:round;stroke-linejoin:round;stroke-width:2px"></line><line x1="235.6" y1="87.25" x2="275.47" y2="37.26" style="fill:none;stroke:#000;stroke-linecap:round;stroke-linejoin:round;stroke-width:2px"></line><line x1="239" y1="93.45" x2="315.04" y2="87.78" style="fill:none;stroke:#000;stroke-linecap:round;stroke-linejoin:round;stroke-width:2px"></line><line x1="221.23" y1="92.26" x2="153.72" y2="77.43" style="fill:none;stroke:#000;stroke-linecap:round;stroke-linejoin:round;stroke-width:2px"></line><line x1="223.61" y1="98.3" x2="174.41" y2="129.79" style="fill:none;stroke:#000;stroke-linecap:round;stroke-linejoin:round;stroke-width:2px"></line><line x1="228.88" y1="101.78" x2="218.85" y2="166.31" style="fill:none;stroke:#000;stroke-linecap:round;stroke-linejoin:round;stroke-width:2px"></line><line x1="235.85" y1="98.89" x2="286.42" y2="140.74" style="fill:none;stroke:#000;stroke-linecap:round;stroke-linejoin:round;stroke-width:2px"></line></g><g style="opacity:0.2"><path d="M68.64,136.56s-4.8,12.26-13.33,21.32-21.85,14.39-21.85,14.39,14.39,10.66,14.92,37.84c0,0,25.59-.53,33.05,21.85,0,0,12.25-17.59,43.7-18.12,0,0-2.67-22.92,19.72-34.11,0,0-20.79-9.59-21.32-38.9C123.53,140.83,86.76,154.68,68.64,136.56Z" style="fill:none;stroke:#000;stroke-linecap:round;stroke-linejoin:round;stroke-width:2px"></path><path d="M75.05,151.49a52.06,52.06,0,0,1-9.15,14.65c-5.86,6.22-15,9.88-15,9.88s9.88,7.33,10.25,26c0,0,17.58-.36,22.7,15,0,0,8.43-12.09,30-12.45,0,0-1.83-15.75,13.55-23.44,0,0-14.28-6.59-14.65-26.73C112.77,154.42,87.51,163.94,75.05,151.49Z" style="fill:none;stroke:#000;stroke-linecap:round;stroke-linejoin:round;stroke-width:2px"></path><path d="M82.16,168a25.62,25.62,0,0,1-4.54,7.26,24,24,0,0,1-7.44,4.91s4.9,3.63,5.08,12.89c0,0,8.72-.18,11.26,7.45,0,0,4.18-6,14.89-6.18a12,12,0,0,1,6.72-11.62s-7.08-3.27-7.26-13.26C100.87,169.46,88.34,174.18,82.16,168Z" style="fill:none;stroke:#000;stroke-linecap:round;stroke-linejoin:round;stroke-width:2px"></path><path d="M86.29,177.6a10.66,10.66,0,0,1-1.86,3,10,10,0,0,1-3.05,2s2,1.49,2.08,5.28c0,0,3.57-.07,4.61,3,0,0,1.72-2.45,6.11-2.53a4.9,4.9,0,0,1,2.75-4.76,6,6,0,0,1-3-5.43S88.82,180.13,86.29,177.6Z" style="fill:none;stroke:#000;stroke-linecap:round;stroke-linejoin:round;stroke-width:2px"></path><line x1="65.97" y1="129.1" x2="86.29" y2="177.6" style="fill:none;stroke:#000;stroke-linecap:round;stroke-linejoin:round;stroke-width:2px"></line><line x1="93.95" y1="178.2" x2="128.86" y2="134.43" style="fill:none;stroke:#000;stroke-linecap:round;stroke-linejoin:round;stroke-width:2px"></line><line x1="96.93" y1="183.63" x2="163.5" y2="178.67" style="fill:none;stroke:#000;stroke-linecap:round;stroke-linejoin:round;stroke-width:2px"></line><line x1="81.38" y1="182.59" x2="22.27" y2="169.61" style="fill:none;stroke:#000;stroke-linecap:round;stroke-linejoin:round;stroke-width:2px"></line><line x1="83.46" y1="187.87" x2="40.39" y2="215.44" style="fill:none;stroke:#000;stroke-linecap:round;stroke-linejoin:round;stroke-width:2px"></line><line x1="88.07" y1="190.92" x2="79.29" y2="247.42" style="fill:none;stroke:#000;stroke-linecap:round;stroke-linejoin:round;stroke-width:2px"></line><line x1="94.18" y1="188.39" x2="138.45" y2="225.03" style="fill:none;stroke:#000;stroke-linecap:round;stroke-linejoin:round;stroke-width:2px"></line></g><path d="M409.74,88a35.84,35.84,0,0,0-5-11.13A27,27,0,0,0,397.62,70s-2.62-2.45-4.28-3.77-2.34-1.08-1.85-.17,3.11,3.35,3.15,4.5-1.74,3.29-5.12,5.48a20.73,20.73,0,0,1-7.06,2.77l-.06-2.08a8.25,8.25,0,0,0,2-2.14c.43-.93-1-2.27-1-2.27l1.6-.51,1.83-7.44c0-.92-5.46,2.25-5.46,2.25l-3.92-.1v.08l-2.56-.11s-5.19-3.54-5.29-2.63l1.31,7.55,1.56.62s-1.52,1.24-1.16,2.2a8.52,8.52,0,0,0,1.86,2.28l-.22,2.06a20.58,20.58,0,0,1-6.84-3.25c-3.23-2.42-4.85-4.67-4.73-5.82s2.9-3.4,3.45-4.27-.11-1.17-1.86,0-4.52,3.47-4.52,3.47a26.93,26.93,0,0,0-7.61,6.4,35.7,35.7,0,0,0-5.74,10.76c-.69,2.24-.44,2,1.38.14s7.32-3.65,7.32-3.65-2.05,4.19-2.29,6.48-.22,4.38.61,3.08A17.75,17.75,0,0,1,354,89.12c.78-.85,6.18-3.76,6.18-3.76A43.41,43.41,0,0,0,358.69,91a11.42,11.42,0,0,0,.75,4l1.63-2.38,4.53-3.48a20.35,20.35,0,0,0,1.87,4.36l2.67,3.29s.44-2,.54-3S373.26,89,373.26,89a64.31,64.31,0,0,0,1.86,6.68l1.82,4.82,0-.4v.31s1.07-2.34,2.15-4.68a65.59,65.59,0,0,0,2.32-6.54s2.21,4.08,2.24,5,.33,3,.33,3l2.89-3.1a20.27,20.27,0,0,0,2.17-4.22l4.27,3.78,1.47,2.49a11.41,11.41,0,0,0,1-4,42.14,42.14,0,0,0-1.11-5.72s5.18,3.28,5.9,4.18a17.91,17.91,0,0,1,1.71,2.94c.74,1.36.9-.72.82-3s-1.83-6.63-1.83-6.63,5.37,2.13,7.05,4.15S410.28,90.32,409.74,88Z" style="fill:#263238;stroke:#263238;stroke-linecap:round;stroke-linejoin:round"></path><line x1="377.44" y1="66.59" x2="377.44" y2="10" style="fill:none;stroke:#263238;stroke-linecap:round;stroke-linejoin:round;stroke-width:2px"></line><path d="M462.74,126.16a35.65,35.65,0,0,0-5-11.13,27,27,0,0,0-7.14-6.91s-2.62-2.45-4.28-3.78-2.34-1.07-1.85-.17,3.11,3.36,3.15,4.51-1.74,3.29-5.12,5.47a20.49,20.49,0,0,1-7.06,2.77l-.06-2.07a8.25,8.25,0,0,0,2-2.14c.43-.94-1-2.27-1-2.27l1.6-.52,1.83-7.44c0-.92-5.46,2.26-5.46,2.26l-3.92-.1v.08l-2.56-.11s-5.19-3.55-5.29-2.63l1.31,7.55,1.56.62s-1.52,1.23-1.16,2.2a8.42,8.42,0,0,0,1.86,2.27l-.22,2.07a20.49,20.49,0,0,1-6.84-3.26c-3.23-2.41-4.85-4.66-4.73-5.81s2.9-3.41,3.45-4.28-.11-1.17-1.86,0-4.52,3.48-4.52,3.48a26.8,26.8,0,0,0-7.61,6.39A35.94,35.94,0,0,0,398.09,124c-.69,2.25-.44,2,1.38.14s7.32-3.64,7.32-3.64-2.05,4.19-2.29,6.48-.22,4.38.61,3.07a17.61,17.61,0,0,1,1.91-2.81c.78-.85,6.18-3.77,6.18-3.77a43.21,43.21,0,0,0-1.51,5.64,11.4,11.4,0,0,0,.75,4l1.63-2.38,4.53-3.47a20.35,20.35,0,0,0,1.87,4.36l2.67,3.29s.44-2,.54-3,2.58-4.83,2.58-4.83a64.31,64.31,0,0,0,1.86,6.68l1.82,4.82,0-.4v.31s1.07-2.35,2.15-4.69a65.76,65.76,0,0,0,2.32-6.53s2.21,4.08,2.24,5,.33,3,.33,3l2.89-3.09a20.27,20.27,0,0,0,2.17-4.22l4.27,3.78,1.47,2.48a11.41,11.41,0,0,0,1-3.95,42.37,42.37,0,0,0-1.11-5.73s5.18,3.29,5.9,4.19a17.91,17.91,0,0,1,1.71,2.94c.74,1.36.9-.72.82-3s-1.83-6.62-1.83-6.62,5.37,2.13,7.05,4.15S463.28,128.45,462.74,126.16Z" style="fill:#263238;stroke:#263238;stroke-linecap:round;stroke-linejoin:round"></path><line x1="430.44" y1="104.72" x2="430.44" y2="11" style="fill:none;stroke:#263238;stroke-linecap:round;stroke-linejoin:round;stroke-width:2px"></line></g><g id="freepik--Costumes--inject-9"><path d="M240.43,450V218.73a9.12,9.12,0,0,0-9.12-9.13H82.05a9.13,9.13,0,0,0-9.13,9.13v230.9" style="fill:none;stroke:#787878;stroke-linejoin:round;stroke-width:4px"></path><path d="M63.58,251.73l4.4-3a41.61,41.61,0,0,0,14.33-18L86,222.17H91.8l3.67,8.56a41.61,41.61,0,0,0,14.33,18l4.41,3a9.85,9.85,0,0,1,4,8.12H59.61A9.82,9.82,0,0,1,63.58,251.73Zm23.68,4.52h25.17c0-2.7-4.31-5.2-6-6.57l-3-2.46a33.25,33.25,0,0,1-9.92-14.53l-2.54-6.93h-4l-2.54,6.93a33.25,33.25,0,0,1-9.92,14.53l-3,2.46c-1.7,1.37-5.92,3.87-5.92,6.57Z" style="fill:#fff;stroke:#787878;stroke-linecap:round;stroke-linejoin:round"></path><path d="M88.92,222v-6.29s-3.59-2.69-3.59-6.58,3-5.39,6.29-4.19" style="fill:none;stroke:#787878;stroke-linecap:round;stroke-linejoin:round"></path><path d="M105.66,242.24S99,249.93,90.6,250.07c-8.91.13-19.37-7.66-19.37-7.66a43.55,43.55,0,0,1-7.75,5.36c-4.66,2.54-7.72,6.26-10.17,12.71-2.72,7.19-8.74,26.74-8.74,26.74l17.33.85-2.38,39.29h57.63l-3.9-40h16.82s-5.58-26.43-8.12-31.51S105.66,242.24,105.66,242.24Z" style="fill:#fff;stroke:#787878;stroke-linecap:round;stroke-linejoin:round"></path><line x1="113.25" y1="287.33" x2="112.36" y2="266.33" style="fill:none;stroke:#787878;stroke-linecap:round;stroke-linejoin:round"></line><line x1="61.9" y1="288.07" x2="63.25" y2="267.67" style="fill:none;stroke:#787878;stroke-linecap:round;stroke-linejoin:round"></line><path d="M72.55,251.73l4.4-3a41.61,41.61,0,0,0,14.33-18L95,222.17h5.82l3.67,8.56a41.61,41.61,0,0,0,14.33,18l4.41,3a9.85,9.85,0,0,1,4,8.12H68.58A9.82,9.82,0,0,1,72.55,251.73Zm23.68,4.52H121.4c0-2.7-4.31-5.2-6-6.57l-3-2.46a33.25,33.25,0,0,1-9.92-14.53l-2.54-6.93h-4l-2.54,6.93a33.25,33.25,0,0,1-9.92,14.53l-3,2.46c-1.7,1.37-5.92,3.87-5.92,6.57Z" style="fill:#fff;stroke:#787878;stroke-linecap:round;stroke-linejoin:round"></path><path d="M97.89,222v-6.29s-3.59-2.69-3.59-6.58,3-5.39,6.29-4.19" style="fill:none;stroke:#787878;stroke-linecap:round;stroke-linejoin:round"></path><path d="M114.63,242.24s-6.68,7.69-15.06,7.83c-8.91.13-19.37-7.66-19.37-7.66a43.55,43.55,0,0,1-7.75,5.36c-4.66,2.54-7.72,6.26-10.17,12.71-2.72,7.19-8.74,26.74-8.74,26.74l17.33.85-2.38,39.29h57.63l-3.9-40H139s-5.58-26.43-8.12-31.51S114.63,242.24,114.63,242.24Z" style="fill:#6b6b6b;stroke:#787878;stroke-linecap:round;stroke-linejoin:round"></path><line x1="122.22" y1="287.33" x2="121.33" y2="266.33" style="fill:none;stroke:#787878;stroke-linecap:round;stroke-linejoin:round"></line><line x1="70.87" y1="288.07" x2="72.22" y2="267.67" style="fill:none;stroke:#787878;stroke-linecap:round;stroke-linejoin:round"></line><polygon points="122.11 231.15 106.5 231.89 106.5 298.75 125.04 298.75 122.11 231.15" style="fill:#fff;stroke:#787878;stroke-linecap:round;stroke-linejoin:round"></polygon><path d="M88.31,250.35l4.4-3A41.59,41.59,0,0,0,107,229.36l3.67-8.57h5.83l3.67,8.57a41.59,41.59,0,0,0,14.33,17.95l4.4,3a9.87,9.87,0,0,1,4,8.13H84.34A9.87,9.87,0,0,1,88.31,250.35ZM112,254.88h25.17c0-2.7-4.3-5.2-6-6.57l-3.05-2.46a33.34,33.34,0,0,1-9.92-14.53l-2.54-6.93h-4l-2.54,6.93a33.27,33.27,0,0,1-9.93,14.53l-3,2.46c-1.71,1.37-5.93,3.87-5.93,6.57Z" style="fill:#fff;stroke:#787878;stroke-linecap:round;stroke-linejoin:round"></path><path d="M113.66,220.65v-6.28s-3.59-2.69-3.59-6.58,3-5.39,6.28-4.19" style="fill:none;stroke:#787878;stroke-linecap:round;stroke-linejoin:round"></path><path d="M122.11,231.14l-6.78,59.67L107,229.36s-14.16,14.5-18.82,17-8.9,5.93-10.17,12.71-8,74.56-8,74.56l15.67.85L84.26,439.61h63.27l-3.81-106.78h14.83s-9.32-73.3-11.87-78.38S122.11,231.14,122.11,231.14Z" style="fill:#fff;stroke:#787878;stroke-linecap:round;stroke-linejoin:round"></path><path d="M122.11,231.14l-8.33,63.64,2,2.65,18.54-55S128.45,233.05,122.11,231.14Z" style="fill:#fff;stroke:#787878;stroke-linecap:round;stroke-linejoin:round"></path><path d="M107,229.36l11.38,84L92.6,241.82S107.12,227.94,107,229.36Z" style="fill:#fff;stroke:#787878;stroke-linecap:round;stroke-linejoin:round"></path><path d="M146.68,254.45s12.12,58.87,14.77,72.77,4,36.41,4,36.41l-23.17.66L135.63,265" style="fill:#fff;stroke:#787878;stroke-linecap:round;stroke-linejoin:round"></path><path d="M79.56,254.45s-12.12,58.87-14.77,72.77-4,103.17-4,103.17l23.17.66L90.61,265" style="fill:#fff;stroke:#787878;stroke-linecap:round;stroke-linejoin:round"></path><line x1="118.42" y1="313.32" x2="118.42" y2="373.56" style="fill:#fff;stroke:#787878;stroke-linecap:round;stroke-linejoin:round"></line><path d="M113,251.73l4.41-3a41.61,41.61,0,0,0,14.33-18l3.67-8.56h5.82l3.67,8.56a41.61,41.61,0,0,0,14.33,18l4.4,3a9.82,9.82,0,0,1,4,8.12H109A9.85,9.85,0,0,1,113,251.73Zm23.68,4.52h25.17c0-2.7-4.3-5.2-6-6.57l-3.05-2.46a33.25,33.25,0,0,1-9.92-14.53l-2.54-6.93h-4l-2.54,6.93a33.25,33.25,0,0,1-9.92,14.53l-3,2.46c-1.7,1.37-5.92,3.87-5.92,6.57Z" style="fill:#fff;stroke:#787878;stroke-linecap:round;stroke-linejoin:round"></path><path d="M138.34,222v-6.29s-3.59-2.69-3.59-6.58,3-5.39,6.29-4.19" style="fill:none;stroke:#787878;stroke-linecap:round;stroke-linejoin:round"></path><path d="M146.8,232.52,140,252l-8.29-21.28s-14.17,14.5-18.83,17-8.9,5.93-10.17,12.71-8,74.57-8,74.57l15.68.84-1.42,97.76h63.28L168.4,334.2h14.83s-9.32-73.3-11.86-78.38S146.8,232.52,146.8,232.52Z" style="fill:#263238;stroke:#787878;stroke-linecap:round;stroke-linejoin:round"></path><polygon points="153.15 237.18 149.34 257.94 141.29 244.38 146.37 229.97 153.15 237.18" style="fill:#fff;stroke:#787878;stroke-linecap:round;stroke-linejoin:round"></polygon><polygon points="131.73 230.73 138.75 244.8 131.54 258.78 125.61 235.48 131.73 230.73" style="fill:#fff;stroke:#787878;stroke-linecap:round;stroke-linejoin:round"></polygon><line x1="168.4" y1="334.2" x2="162.47" y2="271.49" style="fill:none;stroke:#787878;stroke-linecap:round;stroke-linejoin:round"></line><path d="M136,251.73l4.4-3a41.54,41.54,0,0,0,14.33-18l3.67-8.56h5.83l3.67,8.56a41.54,41.54,0,0,0,14.33,18l4.4,3a9.85,9.85,0,0,1,4,8.12H132A9.85,9.85,0,0,1,136,251.73Zm23.68,4.52H184.8c0-2.7-4.3-5.2-6-6.57l-3-2.46a33.27,33.27,0,0,1-9.93-14.53l-2.54-6.93h-4l-2.54,6.93a33.34,33.34,0,0,1-9.92,14.53l-3,2.46c-1.71,1.37-5.93,3.87-5.93,6.57Z" style="fill:#fff;stroke:#787878;stroke-linecap:round;stroke-linejoin:round"></path><path d="M161.3,222v-6.29s-3.59-2.69-3.59-6.58,3-5.39,6.28-4.19" style="fill:none;stroke:#787878;stroke-linecap:round;stroke-linejoin:round"></path><path d="M169.75,232.52,163,252l-8.29-21.28s-14.16,14.5-18.82,17-8.9,5.93-10.17,12.71-8,74.57-8,74.57l15.68.84-1.42,93.36h63.27l-3.81-95.05h14.83s-9.32-73.3-11.86-78.38S169.75,232.52,169.75,232.52Z" style="fill:#6b6b6b;stroke:#787878;stroke-linecap:round;stroke-linejoin:round"></path><polygon points="176.11 237.18 172.29 257.94 164.25 244.38 169.33 229.97 176.11 237.18" style="fill:#fff;stroke:#787878;stroke-linecap:round;stroke-linejoin:round"></polygon><polygon points="154.69 230.73 161.7 244.8 154.5 258.78 148.57 235.48 154.69 230.73" style="fill:#fff;stroke:#787878;stroke-linecap:round;stroke-linejoin:round"></polygon><line x1="133.32" y1="335.89" x2="136.71" y2="271.49" style="fill:none;stroke:#787878;stroke-linecap:round;stroke-linejoin:round"></line><line x1="191.36" y1="334.2" x2="185.43" y2="271.49" style="fill:none;stroke:#787878;stroke-linecap:round;stroke-linejoin:round"></line><path d="M157.12,251.73l4.4-3a41.61,41.61,0,0,0,14.33-18l3.67-8.56h5.82l3.67,8.56a41.61,41.61,0,0,0,14.33,18l4.41,3a9.85,9.85,0,0,1,4,8.12H153.15A9.85,9.85,0,0,1,157.12,251.73Zm23.68,4.52H206c0-2.7-4.31-5.2-6-6.57l-3.05-2.46A33.25,33.25,0,0,1,187,232.69l-2.54-6.93h-4l-2.55,6.93A33.25,33.25,0,0,1,168,247.22l-3,2.46c-1.7,1.37-5.92,3.87-5.92,6.57Z" style="fill:#fff;stroke:#787878;stroke-linecap:round;stroke-linejoin:round"></path><path d="M182.47,222v-6.29s-3.59-2.69-3.59-6.58,3-5.39,6.28-4.19" style="fill:none;stroke:#787878;stroke-linecap:round;stroke-linejoin:round"></path><path d="M199.2,242.24s-6.67,7.69-15.06,7.83c-8.9.13-19.37-7.66-19.37-7.66a43.55,43.55,0,0,1-7.75,5.36c-4.66,2.54-7.72,6.26-10.16,12.71-2.73,7.19-8.75,26.74-8.75,26.74l17.33.85-2.37,39.29h57.62l-3.9-40h16.82s-5.58-26.43-8.12-31.51S199.2,242.24,199.2,242.24Z" style="fill:#a1a1a1;stroke:#787878;stroke-linecap:round;stroke-linejoin:round"></path><line x1="206.79" y1="287.33" x2="205.91" y2="266.33" style="fill:none;stroke:#787878;stroke-linecap:round;stroke-linejoin:round"></line><line x1="155.44" y1="288.07" x2="156.8" y2="267.67" style="fill:none;stroke:#787878;stroke-linecap:round;stroke-linejoin:round"></line><path d="M173,251.73l4.4-3a41.54,41.54,0,0,0,14.33-18l3.67-8.56h5.83l3.67,8.56a41.54,41.54,0,0,0,14.33,18l4.4,3a9.85,9.85,0,0,1,4,8.12H169A9.85,9.85,0,0,1,173,251.73Zm23.68,4.52h25.17c0-2.7-4.3-5.2-6-6.57l-3.05-2.46a33.34,33.34,0,0,1-9.92-14.53l-2.54-6.93h-4l-2.54,6.93a33.27,33.27,0,0,1-9.93,14.53l-3,2.46c-1.71,1.37-5.93,3.87-5.93,6.57Z" style="fill:#fff;stroke:#787878;stroke-linecap:round;stroke-linejoin:round"></path><path d="M198.31,222v-6.29s-3.59-2.69-3.59-6.58,3-5.39,6.28-4.19" style="fill:none;stroke:#787878;stroke-linecap:round;stroke-linejoin:round"></path><path d="M215,242.24s-6.67,7.69-15.06,7.83c-8.9.13-19.36-7.66-19.36-7.66a43.55,43.55,0,0,1-7.75,5.36c-4.66,2.54-7.73,6.26-10.17,12.71C160,267.67,154,287.22,154,287.22l17.32.85-2.37,150.79h57.62l-3.9-151.53h16.82s-5.57-26.43-8.12-31.51S215,242.24,215,242.24Z" style="fill:#fff"></path><path d="M166.59,264.23A9.76,9.76,0,1,0,178,254.61l1.1-3.11-1.75-.25-.8,3.22h-.18A9.76,9.76,0,0,0,166.59,264.23Zm17.29,4.12-.59.8-2.37-1.72-2.55,3.06L176,268.15l-3.34,2.31-2.06-3.36-1.88.62-.31-.94,2.62-.88L173,269l3.16-2.19L178.3,269l2.45-2.94ZM181,264c-1,1.5-3.75-1-3.75-1l4.25-2.5A4.9,4.9,0,0,1,181,264Zm-7.72-5.79,2.69,3.81,4.08-3.4.64.76-4.91,4.1-3.32-4.69Zm-3.16,2.29,4.25,2.5s-2.75,2.5-3.75,1A4.9,4.9,0,0,1,170.08,260.5Z" style="fill:#787878"></path><path d="M183,351.23a9.76,9.76,0,0,0-8.13-9.62l1.1-3.11-1.75-.25-.81,3.22h-.18a10,10,0,0,0-2.75.4l-.06,3.78,2.39,3.38,4.09-3.4.64.76-4.92,4.1-2.22-3.15,0,2.17.86.5a10.48,10.48,0,0,1-.87.68l-.08,5.08,2.76-1.91,2.15,2.16,2.45-2.94,3.13,2.28-.59.8-2.37-1.72-2.55,3.06-2.34-2.34L170.2,357l-.06,3.51a9.88,9.88,0,0,0,3,.49A9.76,9.76,0,0,0,183,351.23Zm-5.16-.23c-1,1.5-3.75-1-3.75-1l4.25-2.5A4.9,4.9,0,0,1,177.79,351Z" style="fill:#787878"></path><path d="M225.87,413.12l-.45-.33-2.55,3.06-2.34-2.34-3.33,2.31-2.07-3.36-1.87.63-.32-.95,2.62-.87,1.93,3.13,3.16-2.18,2.16,2.15,2.44-2.94.59.43-.08-3.05a3.37,3.37,0,0,1-.3.56c-1,1.5-3.74-1-3.74-1l4-2.34-.13-5a9.5,9.5,0,0,0-3.07-1.07l1.1-3.11-1.75-.25-.8,3.22h-.18a9.76,9.76,0,1,0,5.13,18Zm-8.12-9.54,2.69,3.81,4.08-3.4.64.76-4.91,4.1-3.31-4.69Zm-3.15,2.29,4.24,2.5s-2.74,2.5-3.74,1A4.9,4.9,0,0,1,214.6,405.87Z" style="fill:#787878"></path><path d="M205.08,429.11l1.09-3.11-1.74-.25-.81,3.22h-.18a9.76,9.76,0,0,0-9.75,9.76s0,.09,0,.14h4.41a1,1,0,0,1-.43-.37,4.9,4.9,0,0,1-.5-3.5l4.25,2.5a7.31,7.31,0,0,1-2.23,1.37h7.33a7.31,7.31,0,0,1-2.23-1.37l4.25-2.5a4.9,4.9,0,0,1-.5,3.5,1,1,0,0,1-.43.37h5.57c0-.05,0-.1,0-.14A9.76,9.76,0,0,0,205.08,429.11ZM202.83,438l-3.31-4.69.82-.57,2.68,3.8,4.08-3.4.64.77Z" style="fill:#787878"></path><path d="M209.85,350l-.8,3.22h-.18a9.83,9.83,0,1,0,1.63.15l1.1-3.11Zm-7.24,9.24,4.24,2.5s-2.74,2.5-3.74,1A4.9,4.9,0,0,1,202.61,359.24Zm13.78,7.84-.59.81-2.37-1.72-2.55,3.05-2.34-2.34-3.33,2.32-2.07-3.36-1.87.62-.32-.95,2.62-.87,1.93,3.13,3.16-2.18,2.16,2.15,2.44-2.93Zm-2.92-4.34c-1,1.5-3.74-1-3.74-1l4.24-2.5A4.9,4.9,0,0,1,213.47,362.74Zm-.94-5.38.64.77-4.91,4.09L205,357.53l.81-.57,2.69,3.8Z" style="fill:#787878"></path><path d="M221,311.81h-.18a9.76,9.76,0,1,0,0,19.52,9.61,9.61,0,0,0,2.9-.44l-.1-4-.78.93-2.35-2.34-3.34,2.32-2.06-3.37-1.88.63-.31-.95,2.62-.88,1.93,3.14,3.16-2.19,2.16,2.16.81-1-.1-3.82a8.1,8.1,0,0,1-1.8-1.22l1.74-1,0-1.15-3.18,2.65-3.32-4.69.82-.57,2.69,3.8,3-2.46-.12-4.78c-.26-.06-.52-.12-.79-.16l.73-2.06,0-1.11-1.35-.2Zm-2.2,8.52s-2.75,2.5-3.75,1a4.9,4.9,0,0,1-.5-3.5Z" style="fill:#787878"></path><path d="M208.33,290.47A9.76,9.76,0,0,0,210,271.09l1.1-3.11-1.75-.25-.81,3.22h-.18a9.76,9.76,0,1,0,0,19.52Zm4.61-10c-1,1.5-3.75-1-3.75-1l4.25-2.5A4.9,4.9,0,0,1,212.94,280.48Zm-7.71-5.79,2.68,3.81,4.09-3.4.64.77L207.72,280l-3.31-4.69ZM202.07,277l4.25,2.5s-2.75,2.5-3.75,1A4.9,4.9,0,0,1,202.07,277Zm1,5.4,1.94,3.14,3.16-2.19,2.15,2.16,2.45-2.94,3.13,2.28-.59.81-2.37-1.73L210.35,287,208,284.63l-3.34,2.31-2.07-3.36-1.88.63-.31-.95Z" style="fill:#787878"></path><path d="M185.35,386.15l-.81,3.22h-.17a9.77,9.77,0,1,0,1.63.14l1.1-3.11Zm-7.25,9.25,4.25,2.49s-2.75,2.5-3.75,1A4.88,4.88,0,0,1,178.1,395.4Zm13.79,7.84-.59.8-2.37-1.72-2.55,3.06L184,403l-3.34,2.31L178.63,402l-1.87.62-.31-.94,2.62-.88,1.93,3.14,3.16-2.19,2.15,2.16,2.45-2.94ZM189,398.89c-1,1.5-3.75-1-3.75-1l4.25-2.49A4.88,4.88,0,0,1,189,398.89Zm-.95-5.38.64.77-4.91,4.09-3.31-4.68.82-.58,2.68,3.8Z" style="fill:#787878"></path><path d="M188.82,305l1.1-3.12-1.75-.25-.81,3.23h-.18a9.84,9.84,0,1,0,1.64.15Zm3,9.38c-1,1.5-3.75-1-3.75-1l4.25-2.5A4.9,4.9,0,0,1,191.79,314.33Zm-7.71-5.78,2.68,3.8,4.09-3.4.64.77-4.92,4.09-3.31-4.69Zm-3.16,2.28,4.25,2.5s-2.75,2.5-3.75,1A4.9,4.9,0,0,1,180.92,310.83Zm10.83,6.93-2.55,3.06-2.34-2.34-3.34,2.32-2.07-3.37-1.88.63-.31-.95,2.62-.88,1.94,3.14,3.16-2.19,2.15,2.16,2.45-2.94,3.13,2.28-.59.81Z" style="fill:#787878"></path><path d="M216.74,244.7l2.16,2.16,1.11-1.33c-2.79-1.94-5-3.29-5-3.29a25.9,25.9,0,0,1-2.73,2.59l1.27,2.06Z" style="fill:#787878"></path><path d="M217,251.84a9.68,9.68,0,0,0,7.24-3.24c-1.13-.88-2.28-1.72-3.36-2.49L219,248.34,216.62,246l-3.34,2.31-1.76-2.85a26.85,26.85,0,0,1-2.78,1.89A9.73,9.73,0,0,0,217,251.84Z" style="fill:#787878"></path><path d="M215,242.24s-6.67,7.69-15.06,7.83c-8.9.13-19.36-7.66-19.36-7.66a43.55,43.55,0,0,1-7.75,5.36c-4.66,2.54-7.73,6.26-10.17,12.71C160,267.67,154,287.22,154,287.22l17.32.85-2.37,150.79h57.62l-3.9-151.53h16.82s-5.57-26.43-8.12-31.51S215,242.24,215,242.24Z" style="fill:none;stroke:#787878;stroke-linecap:round;stroke-linejoin:round"></path><line x1="222.63" y1="287.33" x2="221.75" y2="266.33" style="fill:none;stroke:#787878;stroke-linecap:round;stroke-linejoin:round"></line><line x1="171.28" y1="288.07" x2="172.64" y2="267.67" style="fill:none;stroke:#787878;stroke-linecap:round;stroke-linejoin:round"></line></g><g id="freepik--Masks--inject-9"><g style="opacity:0.2"><path d="M390.92,149.83s-3.75,9.59-10.42,16.67-17.08,11.26-17.08,11.26,11.25,8.33,11.67,29.59c0,0,20-.42,25.83,17.08,0,0,9.59-13.75,34.18-14.17,0,0-2.09-17.92,15.42-26.67,0,0-16.26-7.5-16.67-30.42C433.85,153.17,405.09,164,390.92,149.83Z" style="fill:none;stroke:#000;stroke-linecap:round;stroke-linejoin:round;stroke-width:2px"></path><path d="M395.94,161.5A40.82,40.82,0,0,1,388.78,173c-4.58,4.87-11.74,7.73-11.74,7.73s7.73,5.73,8,20.33c0,0,13.75-.28,17.75,11.74,0,0,6.59-9.45,23.49-9.73a18.86,18.86,0,0,1,10.59-18.33s-11.17-5.15-11.45-20.91C425.44,163.79,405.68,171.24,395.94,161.5Z" style="fill:none;stroke:#000;stroke-linecap:round;stroke-linejoin:round;stroke-width:2px"></path><path d="M401.5,174.42A20.2,20.2,0,0,1,398,180.1a18.7,18.7,0,0,1-5.82,3.84s3.83,2.84,4,10.08c0,0,6.82-.14,8.81,5.82,0,0,3.26-4.68,11.64-4.82a9.35,9.35,0,0,1,5.26-9.09s-5.54-2.56-5.68-10.37C416.13,175.56,406.33,179.25,401.5,174.42Z" style="fill:none;stroke:#000;stroke-linecap:round;stroke-linejoin:round;stroke-width:2px"></path><path d="M404.73,181.92a8.4,8.4,0,0,1-1.46,2.33,7.65,7.65,0,0,1-2.39,1.57,5.24,5.24,0,0,1,1.63,4.14s2.8-.06,3.61,2.38c0,0,1.34-1.92,4.78-2a3.81,3.81,0,0,1,2.15-3.72,4.66,4.66,0,0,1-2.33-4.25S406.71,183.9,404.73,181.92Z" style="fill:none;stroke:#000;stroke-linecap:round;stroke-linejoin:round;stroke-width:2px"></path><line x1="388.84" y1="144" x2="404.73" y2="181.92" style="fill:none;stroke:#000;stroke-linecap:round;stroke-linejoin:round;stroke-width:2px"></line><line x1="410.72" y1="182.39" x2="438.02" y2="148.17" style="fill:none;stroke:#000;stroke-linecap:round;stroke-linejoin:round;stroke-width:2px"></line><line x1="413.05" y1="186.64" x2="465.1" y2="182.76" style="fill:none;stroke:#000;stroke-linecap:round;stroke-linejoin:round;stroke-width:2px"></line><line x1="400.88" y1="185.82" x2="354.66" y2="175.67" style="fill:none;stroke:#000;stroke-linecap:round;stroke-linejoin:round;stroke-width:2px"></line><line x1="402.51" y1="189.96" x2="368.83" y2="211.51" style="fill:none;stroke:#000;stroke-linecap:round;stroke-linejoin:round;stroke-width:2px"></line><line x1="406.12" y1="192.34" x2="399.26" y2="236.52" style="fill:none;stroke:#000;stroke-linecap:round;stroke-linejoin:round;stroke-width:2px"></line><line x1="410.9" y1="190.36" x2="445.52" y2="219.02" style="fill:none;stroke:#000;stroke-linecap:round;stroke-linejoin:round;stroke-width:2px"></line></g><path d="M320.85,151.58H423.15a11.73,11.73,0,0,1,11.73,11.73v238a0,0,0,0,1,0,0H309.13a0,0,0,0,1,0,0v-238A11.73,11.73,0,0,1,320.85,151.58Z" style="fill:#b8b8b8;stroke:#787878;stroke-linecap:round;stroke-linejoin:round"></path><path d="M348.17,159.9c0-.71,0-1.29,0-1.72a1.83,1.83,0,0,0-.2-1,1,1,0,0,0-.78-.43,9.9,9.9,0,0,0-1.7-.07V156l7.29-.09v.71h-1.41a.72.72,0,0,0-.41.14,1.26,1.26,0,0,0-.32.33,1.46,1.46,0,0,0-.2.44,1.38,1.38,0,0,0-.07.43v30.18a1.51,1.51,0,0,0,.09.5,1.61,1.61,0,0,0,.26.48,1.33,1.33,0,0,0,.39.36,1,1,0,0,0,.49.13l1.27,0,0,.78-7.25.23,0-.78,1.27-.05a.92.92,0,0,0,.5-.18,1.21,1.21,0,0,0,.39-.39,1.73,1.73,0,0,0,.25-.51,1.67,1.67,0,0,0,.09-.52l0-23.15-4.1,14.47-2.65-7.63.33,14.81a1.63,1.63,0,0,0,.09.52,1.45,1.45,0,0,0,.26.47,1.33,1.33,0,0,0,.39.36.84.84,0,0,0,.49.15l1.27,0,0,.78-5.93.18,0-.76,1.27,0a.87.87,0,0,0,.5-.16,1.45,1.45,0,0,0,.39-.39,2.1,2.1,0,0,0,.24-.5,1.17,1.17,0,0,0,.07-.51l-.47-22.93a1.52,1.52,0,0,0-.32-.93,1.1,1.1,0,0,0-.9-.41l-.74,0c-.24,0-.48,0-.74,0l0-.67,5.95-.34.05.69-.86,0a2.5,2.5,0,0,0-.75.13,1.06,1.06,0,0,0-.53.43,1.53,1.53,0,0,0-.2.88l0,2.23c.14.41.29.91.48,1.49s.41,1.26.67,2,.56,1.65.9,2.63.73,2.08,1.16,3.3L348.17,162Z" style="fill:#878787"></path><path d="M360.75,184.14a3.82,3.82,0,0,1-.71.87,6.68,6.68,0,0,1-1,.72,5.43,5.43,0,0,1-1.07.49,3.41,3.41,0,0,1-1.05.18,2.54,2.54,0,0,1-1.32-.33,2.91,2.91,0,0,1-.93-.85,3.41,3.41,0,0,1-.57-1.18,4.74,4.74,0,0,1-.19-1.35,4.48,4.48,0,0,1,.56-2.28,8.32,8.32,0,0,1,1.38-1.82A17.51,17.51,0,0,1,357.7,177a16.54,16.54,0,0,0,1.8-1.63,8.66,8.66,0,0,0,1.38-1.92,5.1,5.1,0,0,0,.56-2.48,6.16,6.16,0,0,0-.13-1.45,4.44,4.44,0,0,0-.55-1.39,3.39,3.39,0,0,0-1-1,2.58,2.58,0,0,0-1.43-.4,2.34,2.34,0,0,0-1.46.43,3,3,0,0,0-.9,1.08,4.6,4.6,0,0,0-.46,1.47,10.84,10.84,0,0,0-.12,1.59c0,.21,0,.47,0,.78a5.24,5.24,0,0,0,.16.91,2.56,2.56,0,0,0,.3.75.58.58,0,0,0,.48.31.67.67,0,0,0,.5-.2,1.47,1.47,0,0,0,.29-.48,1.71,1.71,0,0,0,.11-.59,3.38,3.38,0,0,0,0-.56l.78-.05a4.69,4.69,0,0,1-.05,1,3.22,3.22,0,0,1-.28.86,1.65,1.65,0,0,1-.54.6,1.39,1.39,0,0,1-.8.22,1.59,1.59,0,0,1-1.08-.37,2.48,2.48,0,0,1-.68-.91,4.65,4.65,0,0,1-.35-1.17,8.26,8.26,0,0,1-.1-1.14,7.19,7.19,0,0,1,.27-2,5.6,5.6,0,0,1,.8-1.73,4.15,4.15,0,0,1,1.36-1.24,4,4,0,0,1,2-.47,3.88,3.88,0,0,1,2.36.69,5.15,5.15,0,0,1,1.49,1.75,8.13,8.13,0,0,1,.79,2.3,12.29,12.29,0,0,1,.24,2.33c0,1.89-.07,3.77-.2,5.63s-.2,3.75-.2,5.66a2.3,2.3,0,0,0,.15.94,1,1,0,0,0,.45.46,2,2,0,0,0,.7.16l.93,0v.78L363,186.5l-2.29-.1Zm-2.56.83a1.74,1.74,0,0,0,.68-.17,3.28,3.28,0,0,0,.72-.47,4.94,4.94,0,0,0,.68-.69,4.58,4.58,0,0,0,.57-.86l.42-8.05a15,15,0,0,1-1.5,1.77c-.57.59-1.12,1.19-1.63,1.8a12.89,12.89,0,0,0-1.32,1.89,4.27,4.27,0,0,0-.54,2.08,3.59,3.59,0,0,0,.11.88,3,3,0,0,0,.35.88,2,2,0,0,0,.6.67A1.4,1.4,0,0,0,358.19,185Z" style="fill:#878787"></path><path d="M375.05,173.46h-.87L374,168.8a7.55,7.55,0,0,0-.17-1.35,5,5,0,0,0-.51-1.34,3.17,3.17,0,0,0-.87-1,2,2,0,0,0-1.28-.41,1.83,1.83,0,0,0-1.37.52,3.31,3.31,0,0,0-.77,1.29,6.42,6.42,0,0,0-.33,1.69c-.05.6-.07,1.15-.07,1.66a7.28,7.28,0,0,0,.37,2.42,8.48,8.48,0,0,0,2.09,3.34q.64.62,1.17,1.08a12.44,12.44,0,0,1,1.49,1.52,7.76,7.76,0,0,1,1,1.56,7.55,7.55,0,0,1,.53,1.69,9.19,9.19,0,0,1,.17,1.86,8.18,8.18,0,0,1-.34,2.44,5.51,5.51,0,0,1-1,1.89,4.49,4.49,0,0,1-1.6,1.23,5.21,5.21,0,0,1-2.18.44,4.84,4.84,0,0,1-1.67-.29,4.23,4.23,0,0,1-1.37-.83,3.86,3.86,0,0,1-.94-1.28,4,4,0,0,1-.35-1.68,3.73,3.73,0,0,1,.28-1.44,3.36,3.36,0,0,1,.78-1.13,3.65,3.65,0,0,1,1.16-.72,3.76,3.76,0,0,1,1.44-.26,4.08,4.08,0,0,1,1.05.13l-.22.78a1.88,1.88,0,0,0-.45-.12l-.42,0a2.76,2.76,0,0,0-2,.78,2.7,2.7,0,0,0-.8,2,3.37,3.37,0,0,0,.25,1.26,3.24,3.24,0,0,0,.68,1,3.15,3.15,0,0,0,1,.7,2.87,2.87,0,0,0,1.24.26,2.23,2.23,0,0,0,1.52-.52,3.67,3.67,0,0,0,.95-1.32,7.18,7.18,0,0,0,.49-1.69,10.39,10.39,0,0,0,.14-1.69,6.37,6.37,0,0,0-.48-2.57,5.28,5.28,0,0,0-1.19-1.8l-1.82-1.77a14.81,14.81,0,0,1-1.67-1.95,9.64,9.64,0,0,1-1.21-2.32,8.13,8.13,0,0,1-.47-2.88,7.48,7.48,0,0,1,1.22-4.63,3.93,3.93,0,0,1,3.26-1.57,3.64,3.64,0,0,1,1.93.52,3.83,3.83,0,0,1,1.35,1.49l-.09-3.35.87,0Z" style="fill:#878787"></path><path d="M381,176.11l.7.25a7.83,7.83,0,0,1,.75.33.79.79,0,0,0,.25.05h.26a3.17,3.17,0,0,0,1.35-.29,3.46,3.46,0,0,0,1.07-.79,3.6,3.6,0,0,0,.7-1.16,3.86,3.86,0,0,0,.25-1.4,3.19,3.19,0,0,0-.15-1c-.1-.31-.21-.62-.33-.92s-.24-.61-.34-.92a3.39,3.39,0,0,1-.14-1,3.47,3.47,0,0,1,.23-1.25,3.24,3.24,0,0,1,.65-1,3,3,0,0,1,1-.69,3.05,3.05,0,0,1,1.26-.26l.09.47-.46.12a1.61,1.61,0,0,0-.54.27,1.75,1.75,0,0,0-.46.48,1.32,1.32,0,0,0-.19.76,2.77,2.77,0,0,0,.26,1.25c.17.35.36.71.56,1.07a9.18,9.18,0,0,1,.57,1.13,3.58,3.58,0,0,1,.26,1.41,4.38,4.38,0,0,1-.34,1.76,4,4,0,0,1-.92,1.38,4.29,4.29,0,0,1-1.4.91,4.67,4.67,0,0,1-1.73.32h-.26a2.58,2.58,0,0,1-.44-.05,11.18,11.18,0,0,1,2.4,2.67,11.39,11.39,0,0,1,1.4,3.13c.08.32.18.78.27,1.39s.21,1.28.34,2,.28,1.48.47,2.23a13.74,13.74,0,0,0,.66,2.08,5.62,5.62,0,0,0,.89,1.54,1.53,1.53,0,0,0,1.2.6.88.88,0,0,0,.51-.14,1,1,0,0,0,.34-.34,2.2,2.2,0,0,0,.22-.49l.18-.55.54.09a6.36,6.36,0,0,1-.2.78,2.06,2.06,0,0,1-.41.68,2,2,0,0,1-.67.49,2.26,2.26,0,0,1-1,.19,3,3,0,0,1-1.74-.5,4.63,4.63,0,0,1-1.27-1.33,8.43,8.43,0,0,1-.89-1.86c-.24-.69-.44-1.39-.62-2.1s-.31-1.39-.43-2.05-.24-1.23-.36-1.7c-.18-.69-.38-1.38-.62-2.08a16.47,16.47,0,0,0-.86-2,11.65,11.65,0,0,0-1.19-1.85,7.83,7.83,0,0,0-1.65-1.54l-.14,7.54a3.31,3.31,0,0,0,.1,1,.94.94,0,0,0,.39.53,1.36,1.36,0,0,0,.67.2,7.54,7.54,0,0,0,1,0v.78l-6.67-.09v-.78a7.32,7.32,0,0,0,.81,0,2,2,0,0,0,.72-.18,1.19,1.19,0,0,0,.53-.44,1.77,1.77,0,0,0,.22-.86l.27-21.19a2.34,2.34,0,0,0-.13-1,1,1,0,0,0-.44-.5,1.74,1.74,0,0,0-.73-.2q-.42,0-.93,0v-.76l6.67,0v.72h-.83a1,1,0,0,0-1,.51,2.29,2.29,0,0,0-.28,1.14Z" style="fill:#878787"></path><path d="M399.31,173.46h-.87l-.13-4.66a8.66,8.66,0,0,0-.18-1.35,4.69,4.69,0,0,0-.5-1.34,3.17,3.17,0,0,0-.87-1,2,2,0,0,0-1.28-.41,1.87,1.87,0,0,0-1.38.52,3.44,3.44,0,0,0-.77,1.29,6.85,6.85,0,0,0-.33,1.69c0,.6-.07,1.15-.07,1.66a7.55,7.55,0,0,0,.37,2.42,8.73,8.73,0,0,0,.92,1.89,7.84,7.84,0,0,0,1.18,1.45q.63.62,1.17,1.08a12.32,12.32,0,0,1,1.48,1.52,7.34,7.34,0,0,1,1,1.56,7.09,7.09,0,0,1,.54,1.69,10,10,0,0,1,.17,1.86,8.17,8.17,0,0,1-.35,2.44,5.5,5.5,0,0,1-1,1.89,4.53,4.53,0,0,1-1.61,1.23,5.16,5.16,0,0,1-2.17.44,4.86,4.86,0,0,1-1.68-.29,4.33,4.33,0,0,1-1.37-.83,4,4,0,0,1-.93-1.28,3.83,3.83,0,0,1-.35-1.68,3.56,3.56,0,0,1,.28-1.44,3.1,3.1,0,0,1,.78-1.13,3.54,3.54,0,0,1,1.16-.72,3.76,3.76,0,0,1,1.44-.26,4.19,4.19,0,0,1,1.05.13l-.23.78a1.93,1.93,0,0,0-.44-.12l-.43,0a2.79,2.79,0,0,0-2,.78,2.69,2.69,0,0,0-.79,2,3.36,3.36,0,0,0,.24,1.26,3.45,3.45,0,0,0,.69,1,3.1,3.1,0,0,0,1,.7,2.92,2.92,0,0,0,1.25.26,2.24,2.24,0,0,0,1.52-.52,3.65,3.65,0,0,0,.94-1.32,6.73,6.73,0,0,0,.49-1.69,10.47,10.47,0,0,0,.15-1.69,6.37,6.37,0,0,0-.48-2.57,5.59,5.59,0,0,0-1.19-1.8l-1.82-1.77a13.45,13.45,0,0,1-1.67-1.95,9.67,9.67,0,0,1-1.22-2.32,8.36,8.36,0,0,1-.47-2.88,7.41,7.41,0,0,1,1.23-4.63,3.92,3.92,0,0,1,3.26-1.57,3.61,3.61,0,0,1,1.92.52,3.83,3.83,0,0,1,1.35,1.49l-.09-3.35.87,0Z" style="fill:#878787"></path><rect x="272" y="207" width="200" height="237" style="fill:#b8b8b8;stroke:#787878;stroke-linecap:round;stroke-linejoin:round"></rect><path d="M400.34,204.77s-12.3.49-16.73-3.44-2-13.29-5.91-13.79-4.92,9.36-6.4,18.22S379.18,220,383.11,220s11.82.49,11.82.49Z" style="fill:#fff;stroke:#787878;stroke-linecap:round;stroke-linejoin:round"></path><path d="M428.24,204.77s12.31.49,16.74-3.44,2-13.29,5.9-13.79,4.93,9.36,6.4,18.22S449.41,220,445.47,220s-11.81.49-11.81.49Z" style="fill:#fff;stroke:#787878;stroke-linecap:round;stroke-linejoin:round"></path><path d="M438.48,225.94a86.37,86.37,0,0,0,.75-8.62c0-14-25.11-25.35-25.11-25.35S389,203.32,389,217.32a83.38,83.38,0,0,0,.75,8.62Z" style="fill:#fff;stroke:#787878;stroke-linecap:round;stroke-linejoin:round"></path><path d="M389,217.32a83.38,83.38,0,0,0,.75,8.62h48.71a86.37,86.37,0,0,0,.75-8.62,12.49,12.49,0,0,0-.51-3.43H389.53A12.49,12.49,0,0,0,389,217.32Z" style="fill:#878787;stroke:#787878;stroke-linecap:round;stroke-linejoin:round"></path><circle cx="396" cy="219.29" r="2.71" style="fill:#fff;stroke:#787878;stroke-linecap:round;stroke-linejoin:round"></circle><path d="M411.51,219.29a2.71,2.71,0,1,1-2.71-2.71A2.71,2.71,0,0,1,411.51,219.29Z" style="fill:#fff;stroke:#787878;stroke-linecap:round;stroke-linejoin:round"></path><circle cx="421.6" cy="219.29" r="2.71" style="fill:#fff;stroke:#787878;stroke-linecap:round;stroke-linejoin:round"></circle><path d="M437.1,219.29a2.71,2.71,0,1,1-2.7-2.71A2.7,2.7,0,0,1,437.1,219.29Z" style="fill:#fff;stroke:#787878;stroke-linecap:round;stroke-linejoin:round"></path><path d="M308.61,204.77s-12.31.49-16.74-3.44-2-13.29-5.91-13.79-4.92,9.36-6.4,18.22S287.44,220,291.38,220s11.81.49,11.81.49Z" style="fill:#fff;stroke:#787878;stroke-linecap:round;stroke-linejoin:round"></path><path d="M336.5,204.77s12.31.49,16.74-3.44,2-13.29,5.91-13.79,4.92,9.36,6.4,18.22S357.67,220,353.73,220s-11.81.49-11.81.49Z" style="fill:#fff;stroke:#787878;stroke-linecap:round;stroke-linejoin:round"></path><path d="M346.74,225.94a83.38,83.38,0,0,0,.75-8.62c0-14-25.1-25.35-25.1-25.35s-25.11,11.35-25.11,25.35a86.37,86.37,0,0,0,.75,8.62Z" style="fill:#fff;stroke:#787878;stroke-linecap:round;stroke-linejoin:round"></path><path d="M297.28,217.32a86.37,86.37,0,0,0,.75,8.62h48.71a83.38,83.38,0,0,0,.75-8.62,12.49,12.49,0,0,0-.51-3.43H297.79A12.49,12.49,0,0,0,297.28,217.32Z" style="fill:#878787;stroke:#787878;stroke-linecap:round;stroke-linejoin:round"></path><path d="M307,219.29a2.71,2.71,0,1,1-2.7-2.71A2.7,2.7,0,0,1,307,219.29Z" style="fill:#fff;stroke:#787878;stroke-linecap:round;stroke-linejoin:round"></path><path d="M319.77,219.29a2.71,2.71,0,1,1-2.71-2.71A2.71,2.71,0,0,1,319.77,219.29Z" style="fill:#fff;stroke:#787878;stroke-linecap:round;stroke-linejoin:round"></path><path d="M332.57,219.29a2.71,2.71,0,1,1-2.71-2.71A2.71,2.71,0,0,1,332.57,219.29Z" style="fill:#fff;stroke:#787878;stroke-linecap:round;stroke-linejoin:round"></path><circle cx="342.66" cy="219.29" r="2.71" style="fill:#fff;stroke:#787878;stroke-linecap:round;stroke-linejoin:round"></circle><rect x="262.55" y="224.62" width="214.88" height="5.24" style="fill:#fff;stroke:#787878;stroke-linecap:round;stroke-linejoin:round"></rect><path d="M424.16,272.28c0,17.52-8.31,27.93-18.56,27.93S387,289.8,387,272.28s8.31-26,18.56-26S424.16,254.77,424.16,272.28Z" style="fill:#fff;stroke:#787878;stroke-linecap:round;stroke-linejoin:round"></path><path d="M402.15,270.85a4.1,4.1,0,1,1-4.1-4.1A4.1,4.1,0,0,1,402.15,270.85Z" style="fill:#878787;stroke:#787878;stroke-linecap:round;stroke-linejoin:round"></path><circle cx="412.29" cy="270.85" r="4.1" style="fill:#878787;stroke:#787878;stroke-linecap:round;stroke-linejoin:round"></circle><path d="M416.83,251a39.88,39.88,0,0,1-14.68,15.1" style="fill:none;stroke:#787878;stroke-linecap:round;stroke-linejoin:round"></path><line x1="403.01" y1="261.79" x2="407.76" y2="266.97" style="fill:none;stroke:#787878;stroke-linecap:round;stroke-linejoin:round"></line><line x1="407.76" y1="257.9" x2="412.51" y2="263.08" style="fill:none;stroke:#787878;stroke-linecap:round;stroke-linejoin:round"></line><line x1="410.35" y1="253.59" x2="415.96" y2="258.33" style="fill:none;stroke:#787878;stroke-linecap:round;stroke-linejoin:round"></line><path d="M393.08,293.3A52.43,52.43,0,0,1,413.37,289" style="fill:none;stroke:#787878;stroke-linecap:round;stroke-linejoin:round"></path><line x1="394.81" y1="289.42" x2="398.26" y2="294.6" style="fill:none;stroke:#787878;stroke-linecap:round;stroke-linejoin:round"></line><line x1="401.72" y1="287.69" x2="403.44" y2="293.3" style="fill:none;stroke:#787878;stroke-linecap:round;stroke-linejoin:round"></line><line x1="409.05" y1="286.39" x2="410.35" y2="293.73" style="fill:none;stroke:#787878;stroke-linecap:round;stroke-linejoin:round"></line><path d="M389.9,344.56c0,17.51-8.31,27.93-18.56,27.93s-18.56-10.42-18.56-27.93,8.31-26,18.56-26S389.9,327,389.9,344.56Z" style="fill:#fff;stroke:#787878;stroke-linecap:round;stroke-linejoin:round"></path><circle cx="363.78" cy="343.32" r="4.1" style="fill:#878787;stroke:#787878;stroke-linecap:round;stroke-linejoin:round"></circle><circle cx="378.03" cy="343.32" r="4.1" style="fill:#878787;stroke:#787878;stroke-linecap:round;stroke-linejoin:round"></circle><path d="M358.82,365.58a52.33,52.33,0,0,1,20.29-4.32" style="fill:none;stroke:#787878;stroke-linecap:round;stroke-linejoin:round"></path><line x1="360.55" y1="361.69" x2="364" y2="366.87" style="fill:none;stroke:#787878;stroke-linecap:round;stroke-linejoin:round"></line><line x1="367.45" y1="359.97" x2="369.18" y2="365.58" style="fill:none;stroke:#787878;stroke-linecap:round;stroke-linejoin:round"></line><line x1="374.79" y1="358.67" x2="376.09" y2="366.01" style="fill:none;stroke:#787878;stroke-linecap:round;stroke-linejoin:round"></line><path d="M356,348.16a4.78,4.78,0,0,0,3.82,2.8c2.79.25,4.32.76,7.63-3.82" style="fill:none;stroke:#787878;stroke-linecap:round;stroke-linejoin:round"></path><path d="M376,348.41s.76,3.31,5.09,3.57,5.34-4.33,5.08-6.62" style="fill:none;stroke:#787878;stroke-linecap:round;stroke-linejoin:round"></path><path d="M357,338s6.61-5.85,11.7,3.05a12.3,12.3,0,0,1,0,4.58c-.51,2-4.84,5.59-4.33,7.63s4.33,2,4.33,2,2,5.6,3.56,4.07a26.06,26.06,0,0,0,3-4.07s3.05-.25,3.05-2.54-5.09-6.11-5.59-8.39S373,341,373,341s2-8.39,11.44-3.56" style="fill:#fff;stroke:#787878;stroke-linecap:round;stroke-linejoin:round"></path><line x1="370.45" y1="340.28" x2="370.45" y2="331.38" style="fill:none;stroke:#787878;stroke-linecap:round;stroke-linejoin:round"></line><line x1="371.97" y1="340.28" x2="372.99" y2="333.41" style="fill:none;stroke:#787878;stroke-linecap:round;stroke-linejoin:round"></line><path d="M358.49,331.88s5.09-2,8.4,2" style="fill:none;stroke:#787878;stroke-linecap:round;stroke-linejoin:round"></path><path d="M375,332.39s5.09-2.79,9.16-.76" style="fill:none;stroke:#787878;stroke-linecap:round;stroke-linejoin:round"></path><path d="M344.75,344.56c0,17.51-8.31,27.93-18.56,27.93s-18.57-10.42-18.57-27.93,8.32-26,18.57-26S344.75,327,344.75,344.56Z" style="fill:#fff;stroke:#787878;stroke-linecap:round;stroke-linejoin:round"></path><circle cx="318.63" cy="343.32" r="4.1" style="fill:#878787;stroke:#787878;stroke-linecap:round;stroke-linejoin:round"></circle><circle cx="332.88" cy="343.32" r="4.1" style="fill:#878787;stroke:#787878;stroke-linecap:round;stroke-linejoin:round"></circle><path d="M313.67,365.58A52.27,52.27,0,0,1,334,361.26" style="fill:none;stroke:#787878;stroke-linecap:round;stroke-linejoin:round"></path><line x1="315.4" y1="361.69" x2="318.85" y2="366.87" style="fill:none;stroke:#787878;stroke-linecap:round;stroke-linejoin:round"></line><line x1="322.3" y1="359.97" x2="324.03" y2="365.58" style="fill:none;stroke:#787878;stroke-linecap:round;stroke-linejoin:round"></line><line x1="329.64" y1="358.67" x2="330.94" y2="366.01" style="fill:none;stroke:#787878;stroke-linecap:round;stroke-linejoin:round"></line><path d="M310.8,348.16a4.77,4.77,0,0,0,3.81,2.8c2.8.25,4.33.76,7.63-3.82" style="fill:none;stroke:#787878;stroke-linecap:round;stroke-linejoin:round"></path><path d="M330.89,348.41s.76,3.31,5.09,3.57,5.34-4.33,5.08-6.62" style="fill:none;stroke:#787878;stroke-linecap:round;stroke-linejoin:round"></path><path d="M311.82,338s6.61-5.85,11.7,3.05a12.54,12.54,0,0,1,0,4.58c-.51,2-4.84,5.59-4.33,7.63s4.33,2,4.33,2,2,5.6,3.56,4.07a26.06,26.06,0,0,0,3.05-4.07s3.05-.25,3.05-2.54-5.09-6.11-5.6-8.39.26-3.31.26-3.31,2-8.39,11.44-3.56" style="fill:#fff;stroke:#787878;stroke-linecap:round;stroke-linejoin:round"></path><line x1="325.3" y1="340.28" x2="325.3" y2="331.38" style="fill:none;stroke:#787878;stroke-linecap:round;stroke-linejoin:round"></line><line x1="326.82" y1="340.28" x2="327.84" y2="333.41" style="fill:none;stroke:#787878;stroke-linecap:round;stroke-linejoin:round"></line><path d="M313.34,331.88s5.09-2,8.39,2" style="fill:none;stroke:#787878;stroke-linecap:round;stroke-linejoin:round"></path><path d="M329.87,332.39s5.09-2.79,9.16-.76" style="fill:none;stroke:#787878;stroke-linecap:round;stroke-linejoin:round"></path><path d="M299.6,344.56c0,17.51-8.31,27.93-18.56,27.93s-18.57-10.42-18.57-27.93,8.31-26,18.57-26S299.6,327,299.6,344.56Z" style="fill:#fff;stroke:#787878;stroke-linecap:round;stroke-linejoin:round"></path><circle cx="273.48" cy="343.32" r="4.1" style="fill:#878787;stroke:#787878;stroke-linecap:round;stroke-linejoin:round"></circle><path d="M291.83,343.32a4.1,4.1,0,1,1-4.1-4.1A4.11,4.11,0,0,1,291.83,343.32Z" style="fill:#878787;stroke:#787878;stroke-linecap:round;stroke-linejoin:round"></path><path d="M268.52,365.58a52.27,52.27,0,0,1,20.29-4.32" style="fill:none;stroke:#787878;stroke-linecap:round;stroke-linejoin:round"></path><line x1="270.24" y1="361.69" x2="273.7" y2="366.87" style="fill:none;stroke:#787878;stroke-linecap:round;stroke-linejoin:round"></line><line x1="277.15" y1="359.97" x2="278.88" y2="365.58" style="fill:none;stroke:#787878;stroke-linecap:round;stroke-linejoin:round"></line><line x1="284.49" y1="358.67" x2="285.79" y2="366.01" style="fill:none;stroke:#787878;stroke-linecap:round;stroke-linejoin:round"></line><path d="M265.65,348.16a4.77,4.77,0,0,0,3.81,2.8c2.8.25,4.33.76,7.63-3.82" style="fill:none;stroke:#787878;stroke-linecap:round;stroke-linejoin:round"></path><path d="M285.74,348.41s.76,3.31,5.08,3.57,5.35-4.33,5.09-6.62" style="fill:none;stroke:#787878;stroke-linecap:round;stroke-linejoin:round"></path><path d="M266.67,338s6.61-5.85,11.69,3.05a12.3,12.3,0,0,1,0,4.58c-.51,2-4.83,5.59-4.32,7.63s4.32,2,4.32,2,2,5.6,3.56,4.07a25.71,25.71,0,0,0,3.06-4.07s3-.25,3-2.54-5.09-6.11-5.6-8.39.26-3.31.26-3.31,2-8.39,11.44-3.56" style="fill:#fff;stroke:#787878;stroke-linecap:round;stroke-linejoin:round"></path><line x1="280.14" y1="340.28" x2="280.14" y2="331.38" style="fill:none;stroke:#787878;stroke-linecap:round;stroke-linejoin:round"></line><line x1="281.67" y1="340.28" x2="282.69" y2="333.41" style="fill:none;stroke:#787878;stroke-linecap:round;stroke-linejoin:round"></line><path d="M268.19,331.88s5.09-2,8.39,2" style="fill:none;stroke:#787878;stroke-linecap:round;stroke-linejoin:round"></path><path d="M284.72,332.39s5.09-2.79,9.16-.76" style="fill:none;stroke:#787878;stroke-linecap:round;stroke-linejoin:round"></path><path d="M381.87,267.41a20.05,20.05,0,0,0-17.47-15c-11-1.12-18.77,3-21.4,12.47s-6.06,16.5-5.31,22.06a11.55,11.55,0,0,0,11,10.28c6.17.48,8.49-8.11,14-6.24s5.75,7.07,13,5.66a13.14,13.14,0,0,0,10-16.59C384.24,275.83,382.84,270.9,381.87,267.41Z" style="fill:#fff;stroke:#787878;stroke-linecap:round;stroke-linejoin:round"></path><path d="M357.46,281.69a7.24,7.24,0,0,0-4.47-7.24c-5.11-2.36-11.09-1.55-11.2,4.13C341.66,285.24,356.44,289.3,357.46,281.69Z" style="fill:#878787;stroke:#787878;stroke-linecap:round;stroke-linejoin:round"></path><path d="M361.55,280.5a7.21,7.21,0,0,1,5.07-6.83c5.29-1.92,11.19-.6,10.81,5.07C377,285.38,361.91,288.17,361.55,280.5Z" style="fill:#878787;stroke:#787878;stroke-linecap:round;stroke-linejoin:round"></path><rect x="262.55" y="297.99" width="214.88" height="5.24" style="fill:#fff;stroke:#787878;stroke-linecap:round;stroke-linejoin:round"></rect><rect x="262.55" y="371.37" width="214.88" height="5.24" style="fill:#fff;stroke:#787878;stroke-linecap:round;stroke-linejoin:round"></rect><path d="M412.06,332.21s-2.65-1.13-7.19-5.68-7.38-13.62-9.09-11,4.92,21.76,6.82,28.77,5.86,9.65,7.95,9.08a6.57,6.57,0,0,0,4.92-4.73c.56-2.65-1-13.82-1.33-14.57A8.35,8.35,0,0,0,412.06,332.21Z" style="fill:#fff;stroke:#787878;stroke-linecap:round;stroke-linejoin:round"></path><path d="M399,324.45s-.19,4.36,6.62,8.9,9.47,10.79,9.66,13.06" style="fill:#fff;stroke:#787878;stroke-linecap:round;stroke-linejoin:round"></path><path d="M452.79,332.21s2.65-1.13,7.2-5.68,7.38-13.62,9.08-11-4.92,21.76-6.81,28.77-5.87,9.65-7.95,9.08a6.55,6.55,0,0,1-4.92-4.73c-.57-2.65.94-13.82,1.32-14.57A8.35,8.35,0,0,1,452.79,332.21Z" style="fill:#fff;stroke:#787878;stroke-linecap:round;stroke-linejoin:round"></path><path d="M465.85,324.45s.19,4.36-6.62,8.9-9.47,10.79-9.65,13.06" style="fill:#fff;stroke:#787878;stroke-linecap:round;stroke-linejoin:round"></path><path d="M450.66,341.46s6.91-13.82-.43-25.91-21.59-10.79-29.36-4.75a23.17,23.17,0,0,0-9.5,19c0,5.61,2.16,13.38,2.16,13.38s-4.31,6.91-1.29,11.66,8.63,6.91,10.36,9.06,1.73,9.5,6.91,11.66,11.22.86,12.52-4.32,1.72-5.61,3-7.34,8.2-6,9.06-10.79S450.66,341.46,450.66,341.46Z" style="fill:#fff;stroke:#787878;stroke-linecap:round;stroke-linejoin:round"></path><path d="M430.92,342.57a7.13,7.13,0,0,1-12.63-6.6c1.82-3.48,4.1-1,7.59.86S432.74,339.08,430.92,342.57Z" style="fill:#878787;stroke:#787878;stroke-linecap:round;stroke-linejoin:round"></path><path d="M447.39,336.54a7.12,7.12,0,0,1-13.19,5.39c-1.49-3.64,1.91-3.76,5.55-5.25S445.9,332.9,447.39,336.54Z" style="fill:#878787;stroke:#787878;stroke-linecap:round;stroke-linejoin:round"></path><path d="M420,351.82s10.79,4.75,26.33,0c0,0-7.82,20.14-12.13,20.14s-4.52.43-6.25-3S420,351.82,420,351.82Z" style="fill:#878787;stroke:#787878;stroke-linecap:round;stroke-linejoin:round"></path><path d="M432.88,357.77s-3.41-2.65-5.49-.38,0,12.3,0,16.84-.38,6.82,1.14,8.14,5.86,1.89,8,.95,3.21-2.27,3.4-4.17.38-18.92.19-20.63S437.42,354.17,432.88,357.77Z" style="fill:#fff;stroke:#787878;stroke-linecap:round;stroke-linejoin:round"></path><line x1="432.88" y1="357.77" x2="432.88" y2="365.71" style="fill:#fff;stroke:#787878;stroke-linecap:round;stroke-linejoin:round"></line><line x1="421.33" y1="326.34" x2="444.05" y2="326.34" style="fill:none;stroke:#787878;stroke-linecap:round;stroke-linejoin:round"></line><line x1="427.39" y1="321.8" x2="436.1" y2="321.8" style="fill:none;stroke:#787878;stroke-linecap:round;stroke-linejoin:round"></line><path d="M430.8,345.08s-3.41,3.22-3.22,5.11,3.22,2.09,3.6.95.75-2.08.75-2.08.76-1.33,1.14-.38.57,2.08,1.89,2.65,3.41,0,3.22-1.89-4-3.79-4.73-4.74S431.56,344.33,430.8,345.08Z" style="fill:#878787;stroke:#787878;stroke-linecap:round;stroke-linejoin:round"></path><path d="M277.64,264.64s-2.65-1.14-7.2-5.68-7.38-13.63-9.08-11,4.92,21.77,6.81,28.77,5.87,9.65,7.95,9.09A6.57,6.57,0,0,0,281,281.1c.57-2.65-.94-13.81-1.32-14.57A8.26,8.26,0,0,0,277.64,264.64Z" style="fill:#fff;stroke:#787878;stroke-linecap:round;stroke-linejoin:round"></path><path d="M264.58,256.88s-.19,4.35,6.62,8.89,9.46,10.79,9.65,13.06" style="fill:#fff;stroke:#787878;stroke-linecap:round;stroke-linejoin:round"></path><path d="M318.37,264.64s2.65-1.14,7.19-5.68,7.38-13.63,9.09-11-4.92,21.77-6.82,28.77-5.86,9.65-7.95,9.09A6.58,6.58,0,0,1,315,281.1c-.57-2.65,1-13.81,1.33-14.57A8.26,8.26,0,0,1,318.37,264.64Z" style="fill:#fff;stroke:#787878;stroke-linecap:round;stroke-linejoin:round"></path><path d="M331.43,256.88s.19,4.35-6.63,8.89-9.46,10.79-9.65,13.06" style="fill:#fff;stroke:#787878;stroke-linecap:round;stroke-linejoin:round"></path><path d="M316.24,273.88s6.9-13.81-.44-25.9-21.58-10.79-29.35-4.75a23.14,23.14,0,0,0-9.5,19c0,5.62,2.16,13.39,2.16,13.39s-4.32,6.9-1.3,11.65,8.64,6.91,10.36,9.07,1.73,9.5,6.91,11.66,11.23.86,12.52-4.32,1.73-5.61,3-7.34,8.21-6,9.07-10.79S316.24,273.88,316.24,273.88Z" style="fill:#fff;stroke:#787878;stroke-linecap:round;stroke-linejoin:round"></path><path d="M296.49,275a7.12,7.12,0,1,1-12.62-6.59c1.82-3.49,4.1-1,7.59.85S298.32,271.5,296.49,275Z" style="fill:#878787;stroke:#787878;stroke-linecap:round;stroke-linejoin:round"></path><path d="M313,269a7.12,7.12,0,1,1-13.19,5.38c-1.48-3.64,1.91-3.76,5.56-5.24S311.48,265.33,313,269Z" style="fill:#878787;stroke:#787878;stroke-linecap:round;stroke-linejoin:round"></path><path d="M285.58,284.24s10.8,4.75,26.34,0c0,0-7.82,20.15-12.14,20.15s-4.52.42-6.24-3S285.58,284.24,285.58,284.24Z" style="fill:#878787;stroke:#787878;stroke-linecap:round;stroke-linejoin:round"></path><path d="M298.46,290.19s-3.41-2.65-5.49-.38,0,12.3,0,16.85-.38,6.81,1.13,8.14,5.87,1.89,7.95.94,3.22-2.27,3.41-4.16.38-18.93.19-20.63S303,286.59,298.46,290.19Z" style="fill:#fff;stroke:#787878;stroke-linecap:round;stroke-linejoin:round"></path><line x1="298.46" y1="290.19" x2="298.46" y2="298.14" style="fill:#fff;stroke:#787878;stroke-linecap:round;stroke-linejoin:round"></line><line x1="286.91" y1="258.77" x2="309.62" y2="258.77" style="fill:none;stroke:#787878;stroke-linecap:round;stroke-linejoin:round"></line><line x1="292.97" y1="254.23" x2="301.67" y2="254.23" style="fill:none;stroke:#787878;stroke-linecap:round;stroke-linejoin:round"></line><path d="M296.37,277.51s-3.4,3.22-3.21,5.11,3.21,2.08,3.59.95.76-2.09.76-2.09.76-1.32,1.14-.38.56,2.09,1.89,2.65,3.41,0,3.22-1.89-4-3.78-4.74-4.73S297.13,276.75,296.37,277.51Z" style="fill:#878787;stroke:#787878;stroke-linecap:round;stroke-linejoin:round"></path><path d="M411.15,439.48s1.09-3.63,1.82-13.07-.73-22.88-4.73-28.69-16-6.9-16-6.9A40.77,40.77,0,0,0,369,385.37c-13.08,1.09-19.25,12.71-19.25,22.88s2.54,17.07,9.81,20a31.52,31.52,0,0,0,13.79,2.18s-2.9,1.82-2.9,3.27,4.36,4,4.36,4-5.07,2.78-9.44,2.18-16-5.81-14.53-2.18,17.07,7.27,25.42,7.27,36.68-.37,41-1.09,10.9-7.27,10.17-9.08-5.81,2.54-8.35,3.63S411.15,439.48,411.15,439.48Z" style="fill:#fff;stroke:#787878;stroke-linecap:round;stroke-linejoin:round"></path><path d="M405.7,415.51c.35-11.64-3.79-19.12-8.21-23.76a39.12,39.12,0,0,0-5.22-.93A40.77,40.77,0,0,0,369,385.37c-13.08,1.09-19.25,12.71-19.25,22.88s2.54,17.07,9.81,20a31.52,31.52,0,0,0,13.79,2.18,10.06,10.06,0,0,0-2.5,2.23C385.45,434.29,405.19,432.63,405.7,415.51Z" style="fill:#878787;stroke:#787878;stroke-linecap:round;stroke-linejoin:round"></path><path d="M391.9,422.77c6.18-10.16,4.72-20-1.45-27.23-4.36-5.13-10.17-9.53-17.3-10.27a38.21,38.21,0,0,0-4.12.1c-13.08,1.09-19.25,12.71-19.25,22.88s2.54,17.07,9.81,20a31.52,31.52,0,0,0,13.79,2.18S385.73,432.94,391.9,422.77Z" style="fill:#fff;stroke:#787878;stroke-linecap:round;stroke-linejoin:round"></path><path d="M411.15,439.48A110.67,110.67,0,0,0,413,426.41c.07-1,.12-2.09.15-3.18a24.27,24.27,0,0,1-14.68,14.07c-9.16,3.15-19.89,1.11-24,.1.26.17.43.26.43.26a19.82,19.82,0,0,1-2.28,1c2.28.78,6,1.95,11.36,3.34C393.35,444.47,404.77,442.64,411.15,439.48Z" style="fill:#878787;stroke:#787878;stroke-linecap:round;stroke-linejoin:round"></path><rect x="262.55" y="444.74" width="214.88" height="5.24" style="fill:#fff;stroke:#787878;stroke-linecap:round;stroke-linejoin:round"></rect><path d="M471.71,267.41a20,20,0,0,0-17.46-15c-11-1.12-18.77,3-21.41,12.47s-6,16.5-5.3,22.06a11.55,11.55,0,0,0,11,10.28c6.16.48,8.49-8.11,14-6.24s5.74,7.07,13,5.66a13.14,13.14,0,0,0,10-16.59C474.09,275.83,472.69,270.9,471.71,267.41Z" style="fill:#fff;stroke:#787878;stroke-linecap:round;stroke-linejoin:round"></path><path d="M447.3,281.69a7.22,7.22,0,0,0-4.46-7.24c-5.11-2.36-11.1-1.55-11.2,4.13C431.51,285.24,446.29,289.3,447.3,281.69Z" style="fill:#878787;stroke:#787878;stroke-linecap:round;stroke-linejoin:round"></path><path d="M451.4,280.5a7.21,7.21,0,0,1,5.06-6.83c5.3-1.92,11.19-.6,10.81,5.07C466.83,285.38,451.75,288.17,451.4,280.5Z" style="fill:#878787;stroke:#787878;stroke-linecap:round;stroke-linejoin:round"></path><path d="M443.86,294.7s-2.39-6-2.39-8.05,6-1.49,6-1.49" style="fill:#fff;stroke:#787878;stroke-linecap:round;stroke-linejoin:round"></path><path d="M447.3,281.69S443.74,292,443,295.75s-.75,9,2.25,7.48,0-6,7.48-9,7.49-6.74,5.25-7.49a19.79,19.79,0,0,0-5.25-.75" style="fill:#fff;stroke:#787878;stroke-linecap:round;stroke-linejoin:round"></path><polygon points="474.33 388.33 429.67 388.33 433.67 442.33 463.67 442.33 474.33 388.33" style="fill:#878787;stroke:#787878;stroke-linecap:round;stroke-linejoin:round"></polygon><polygon points="432.06 419.97 433.67 442.33 463.67 442.33 468.04 419.97 432.06 419.97" style="fill:#FFA500;stroke:#787878;stroke-linecap:round;stroke-linejoin:round"></polygon><rect x="425.67" y="440.33" width="50" height="4" style="fill:#878787;stroke:#787878;stroke-linecap:round;stroke-linejoin:round"></rect><path d="M283.51,419.07s-2.32-1.29-10.21,4.44-13.61,8.6-.71,16.48,36.55,9.32,46.58,7.89,30.82-13.62,31.54-19.35-22.22-7.17-32.25-7.89S290.86,417.49,283.51,419.07Z" style="fill:#fff;stroke:#787878;stroke-linecap:round;stroke-linejoin:round"></path><path d="M325.62,416.34s-2.15-16.48-7.16-17.91-13.62,2.86-13.62,2.86-5.73-8.6-12.18-2.86-11.47,26.51-10,31.53,16.49,11.47,25.8,10.75,21.5-10,21.5-10Z" style="fill:#fff;stroke:#787878;stroke-linecap:round;stroke-linejoin:round"></path><path d="M326.08,417.88c-7,2.83-18.07,6.54-26.26,5.63a55.55,55.55,0,0,1-16.31-4.44c-1,4.78-1.43,9-.89,10.89,1.43,5,16.49,11.47,25.8,10.75s21.5-10,21.5-10Z" style="fill:#878787;stroke:#787878;stroke-linecap:round;stroke-linejoin:round"></path><path d="M317.74,404.16s-13.62,10-9.32,12.9,12.19-5.73,12.19-5.73" style="fill:none;stroke:#787878;stroke-linecap:round;stroke-linejoin:round"></path><path d="M304.84,401.29s-6.45,5.74-7.17,9.32" style="fill:none;stroke:#787878;stroke-linecap:round;stroke-linejoin:round"></path></g><g id="freepik--character-2--inject-9"><path d="M340.85,450c-.34,1-7.34,12.33-11.34,15.67s-10.66,6-8,9,10.34,3.33,22.67-1,18.33-9.34,23-10.34,6.67-3,3.67-13S340.85,450,340.85,450Z" style="fill:#263238;stroke:#263238;stroke-linecap:round;stroke-linejoin:round"></path><path d="M367.18,463.33C371,462.51,373,461,372,455c-2.51,1.48-5.75,3.51-9.14,6-7.34,5.33-20,10.33-29,13-6.36,1.88-10.71-.22-12.73-1.62a2,2,0,0,0,.39,2.29c2.67,3,10.34,3.33,22.67-1S362.51,464.33,367.18,463.33Z" style="fill:#fff;stroke:#263238;stroke-linecap:round;stroke-linejoin:round"></path><path d="M270.51,441.33s-7.66,7.67-12,10.34-13.66,5.33-14.33,9,13,5.33,24.33,4.33,11.34-4.33,14.67-4.67,15.33,1,16.67-3.66-2-9.67-2.34-10.67S275.51,439.67,270.51,441.33Z" style="fill:#263238;stroke:#263238;stroke-linecap:round;stroke-linejoin:round"></path><path d="M299.85,456.67a9.53,9.53,0,0,0,.11-4.34c-5.21,6.18-11.25,4.35-15.11,4.67s-11.67,6-24.67,6c-8.27,0-13.15-1.88-15.62-3.26a2.86,2.86,0,0,0-.38.93c-.67,3.66,13,5.33,24.33,4.33s11.34-4.33,14.67-4.67S298.51,461.33,299.85,456.67Z" style="fill:#fff;stroke:#263238;stroke-linecap:round;stroke-linejoin:round"></path><path d="M282.85,298s-14.34,41.33-17.67,51-3.33,23-2,26,9.67,56,9.67,58.67-3.67,2-3.67,4.66a21.14,21.14,0,0,1-1,5.67s13.33,7.67,20.33,8.33a43.13,43.13,0,0,0,10.67,0s0,1.34.33-2.33,1-6.33.34-13.33-7-17-7.34-28.67-5-42.33-4-45.33,21-40,21-40l8.34,2.33s-.34,33.33.66,41.33,20,68.34,21,71a17.13,17.13,0,0,1,1,5.34,4.69,4.69,0,0,0-2.66,4.66,49.62,49.62,0,0,0,1.33,7,50.9,50.9,0,0,0,14.67,2c8.66,0,17.66-3.66,17.66-3.66a85.71,85.71,0,0,0-3.66-12.34c-2-4.66-7-17.66-7.67-22.33s-11.67-52.33-10.67-58,5-51.67,5-51.67Z" style="fill:#FFA500;stroke:#263238;stroke-linecap:round;stroke-linejoin:round"></path><polygon points="309.51 322.67 299.88 318.81 307.2 326.13 309.51 322.67" style="fill:#263238;stroke:#263238;stroke-linecap:round;stroke-linejoin:round"></polygon><path d="M290.47,431.39c1.91,5.6,3.71,10,3.71,11.95v8.55" style="fill:none;stroke:#263238;stroke-linecap:round;stroke-linejoin:round"></path><path d="M302.32,320.84l-22.39,43.55s5.7,2.44,2.45,3.25-4.48,1.22-3.67,2.45a45.62,45.62,0,0,0,4.48,4.47s3.47,35.27,5.78,50" style="fill:none;stroke:#263238;stroke-linecap:round;stroke-linejoin:round"></path><path d="M348.33,324.65c-1.12,12.27-3.11,33.49-3.69,36.08a77.51,77.51,0,0,1-2.44,8.13,3.25,3.25,0,0,1,2.44,2.45c.41,2-2-2.85.41,11.39s20.75,64.3,21.16,65.93a15.19,15.19,0,0,1,0,4.48" style="fill:none;stroke:#263238;stroke-linecap:round;stroke-linejoin:round"></path><path d="M349.12,316s-.11,1.2-.29,3.22" style="fill:none;stroke:#263238;stroke-linecap:round;stroke-linejoin:round"></path><path d="M314.18,189.67s-18.33-.67-24,2-43,14.33-47,15.33-13,14-8,17,13.33.67,15.33.33,31-5.66,31-5.66,9,41,9.67,48-2.33,14.33-3.33,17.66-6.34,17.34-6.34,17.34,7.67,11.66,28,13.33,35.34,0,37-.33,7.67-1.34,7.67-1.34,3.33-27.66,1-40.33-6-49-6-49,20.33,12.67,27.67,15,8.66-3,8-9.67-11-15-17.67-20-6-6-16.67-12S328.85,189,324.85,189,314.18,189.67,314.18,189.67Z" style="fill:#263238;stroke:#263238;stroke-linecap:round;stroke-linejoin:round"></path><path d="M328.34,208.77c-1.62,8.78-7.63,15-13.43,14s-9.17-9-7.55-17.83,7.63-15,13.42-14S330,200,328.34,208.77Z" style="fill:#fff;stroke:#263238;stroke-linecap:round;stroke-linejoin:round"></path><path d="M310.85,193.33s-.67,16,1.33,21.34,9.33,2,12.33-6a43,43,0,0,0,3-13.67l1.67-18.67Z" style="fill:#fff;stroke:#263238;stroke-linecap:round;stroke-linejoin:round"></path><path d="M329.13,176.88l-1.22.64-17.06,15.81s-.22,5.18,0,10.62L329,178.61Z" style="fill:#263238;stroke:#263238;stroke-linecap:round;stroke-linejoin:round"></path><path d="M305.18,119.67s-1.33-5.34-8.33-8.34-7.67-.33-7.67-.33l2.67,3s-10-1-15.67,3.33.67,4,.67,4-9,11.34-8.67,14,9.67,0,9.67,0-7.34,8.67-6,12.67,5.33,2,5.33,2-.67,7.33,1.67,7.67a4.86,4.86,0,0,0,4-1.67s.66,6,3,6.67,9-4.67,9-4.67-5.67-15.33,2.66-25.33,9.67-10.34,9.67-10.34Z" style="fill:#FFA500;stroke:#263238;stroke-linecap:round;stroke-linejoin:round"></path><path d="M337.18,126.67a33.29,33.29,0,0,1,7.33-6.34c5-3.33,11.34-3.66,10-2a24,24,0,0,1-4.33,3.67s11.67-4,18.67,1.67-4,3.66-4,3.66,9.33,11.67,8.33,17.34-5.67-1.67-5.67-1.67,3,11.67-2.33,14a5.67,5.67,0,0,1-7.67-2.67s.34,9.67-1.66,9.67-5.34-3-5.34-3,.34,6.67-3.33,7-4.33-2.67-4.33-2.67-2,4-4.34,3-2.66-5.66-2.66-5.66,2.33-21.67,2.33-26A70,70,0,0,0,337.18,126.67Z" style="fill:#FFA500;stroke:#263238;stroke-linecap:round;stroke-linejoin:round"></path><path d="M276.51,181.33s6.67-4,9-6.66,2.34-4,4.34-6.67,3.66-4,3-5.33-1.67-.34-3,1a24.48,24.48,0,0,1-4.67,3,20.38,20.38,0,0,1,4.33-6c2.67-2.34,6-6,6-6s-3.33-.34-5-2-7,6-9.66,9.66-3,11-3.34,12.34S276.51,181.33,276.51,181.33Z" style="fill:#263238;stroke:#263238;stroke-linecap:round;stroke-linejoin:round"></path><path d="M339.18,159.33s5.67-14.33,1.33-27a25.29,25.29,0,0,0-32-15.33c-13,4.67-19.33,16.67-19.33,23v15.67s-3.67,5.66-1.67,11,11.34,21.66,12.67,25.66,8,7.34,11.33,3.67,21-18.33,24-25A46.7,46.7,0,0,0,339.18,159.33Z" style="fill:#fff;stroke:#263238;stroke-linecap:round;stroke-linejoin:round"></path><path d="M308.42,151.85a46.77,46.77,0,0,1-.36-12.27" style="fill:none;stroke:#263238;stroke-linecap:round;stroke-linejoin:round"></path><path d="M309.5,154a94.6,94.6,0,0,0,4-14.8" style="fill:none;stroke:#263238;stroke-linecap:round;stroke-linejoin:round"></path><path d="M315.39,151.38a37.63,37.63,0,0,0,3.42-9.34c.86-4.6-.52-13.14,1.1-12.62S330.22,142,331,146.79s-1.18,13.28-1.18,13.28,1.91,3.91,1.16,7.51-5.47,6.76-5.47,6.76,2.41-6.43-.6-9.46-9.84-7.83-10.31-9.57S315.39,151.38,315.39,151.38Z" style="fill:#FFA500;stroke:#263238;stroke-linecap:round;stroke-linejoin:round"></path><path d="M305.85,150.67a37.94,37.94,0,0,1-2.34-9.67c-.33-4.67,2-13,.34-12.67s-11.67,11.34-13,16-.34,13.34-.34,13.34-2.33,3.66-2,7.33,4.67,7.33,4.67,7.33-1.67-6.66,1.67-9.33,10.66-6.67,11.33-8.33S305.85,150.67,305.85,150.67Z" style="fill:#FFA500;stroke:#263238;stroke-linecap:round;stroke-linejoin:round"></path><path d="M300.12,148.17c1.27,2.65,3.36,4.4.53,5.49a4.15,4.15,0,0,1-5.22-2.06c-1.27-2.65-2.5-3.43-2.19-4.84C293.9,143.79,298.85,145.51,300.12,148.17Z" style="fill:#fff;stroke:#263238;stroke-linecap:round;stroke-linejoin:round"></path><circle cx="307.85" cy="157.33" r="8.33" transform="translate(106.31 438.23) rotate(-81.41)" style="fill:#263238;stroke:#263238;stroke-linecap:round;stroke-linejoin:round"></circle><path d="M294.66,166.79c-.72-1.15-1.15-1.79-1.15-1.79A3.1,3.1,0,0,0,294.66,166.79Z" style="fill:#fff;stroke:#263238;stroke-linecap:round;stroke-linejoin:round"></path><polyline points="302.13 175.63 303.69 177.67 304.71 175.48 305.55 179.69 307.24 175.14 308.08 180.7 310.44 176.15 310.95 179.69 313.31 175.81 313.64 179.35" style="fill:none;stroke:#263238;stroke-linecap:round;stroke-linejoin:round"></polyline><line x1="304.2" y1="171.09" x2="304.71" y2="176.15" style="fill:none;stroke:#263238;stroke-linecap:round;stroke-linejoin:round"></line><line x1="307.24" y1="171.6" x2="307.24" y2="175.64" style="fill:none;stroke:#263238;stroke-linecap:round;stroke-linejoin:round"></line><line x1="310.15" y1="171.98" x2="310.44" y2="176.66" style="fill:none;stroke:#263238;stroke-linecap:round;stroke-linejoin:round"></line><line x1="313.81" y1="172.1" x2="313.31" y2="175.81" style="fill:none;stroke:#263238;stroke-linecap:round;stroke-linejoin:round"></line><line x1="305.55" y1="179.69" x2="305.38" y2="186.94" style="fill:none;stroke:#263238;stroke-linecap:round;stroke-linejoin:round"></line><line x1="308.08" y1="180.7" x2="307.57" y2="186.61" style="fill:none;stroke:#263238;stroke-linecap:round;stroke-linejoin:round"></line><line x1="310.95" y1="179.69" x2="310.61" y2="184.24" style="fill:none;stroke:#263238;stroke-linecap:round;stroke-linejoin:round"></line><path d="M310.51,170c-4.33-.67-5.33-1.33-11-1.67a8.1,8.1,0,0,1-4.85-1.54c1.09,1.72,2.85,4.6,4.85,8.21,3.34,6,2.67,10.33,4.34,13s2.66,2.33,6.66-2.33S324.85,166,324.85,166C321.51,170,314.85,170.67,310.51,170Zm-.36,13.42c-2.92,3.4-3.65,3.65-4.86,1.7s-.73-5.11-3.17-9.49c-1.46-2.63-2.74-4.73-3.54-6a2.2,2.2,0,0,1-.83-1.31s.31.47.83,1.31a5.91,5.91,0,0,0,3.54,1.13c4.14.24,4.87.73,8,1.21s8,0,10.46-2.92C320.61,169.06,313.07,180,310.15,183.42Z" style="fill:#263238;stroke:#263238;stroke-linecap:round;stroke-linejoin:round"></path><path d="M328.4,149.57c2.86.72-2.22,3.47-4.84,5s-5.39,2.54-6.88,0-1.84-3,.78-4.52S325.28,148.79,328.4,149.57Z" style="fill:#fff;stroke:#263238;stroke-linecap:round;stroke-linejoin:round"></path><ellipse cx="297.68" cy="149.5" rx="1.5" ry="2.83" style="fill:#263238"></ellipse><path d="M320.68,152.67c0,1.56-.67,2.83-1.5,2.83s-1.5-1.27-1.5-2.83.67-2.84,1.5-2.84S320.68,151.1,320.68,152.67Z" style="fill:#263238"></path><path d="M272.18,178s4.67-14.67,5.33-16.33,10-9.67,11.34-10.67,2.33,0,1.66,1.67-3.18,4.47-4.51,6.14-3.92,5.08-3.92,5.08,4.69-5.24,7.36-4.91-3.95,6.1-5.28,7.43-3.31,8.92-3.31,8.92-2.67,5.34-5.34,7.34a29.28,29.28,0,0,1-4,2.66s-23.66,31-26,33.67-3.66,4.33-10.33,5-8.33-6.33-7-13,13.33-13,17-15.33S272.18,178,272.18,178Z" style="fill:#fff;stroke:#263238;stroke-linecap:round;stroke-linejoin:round"></path><path d="M345.1,180s-.25-10.75-.75-12.25-3-6.75-3-8.75-3.25,0-3.25,1.75a25,25,0,0,0,1.25,6.5C339.85,168.5,345.1,180,345.1,180Z" style="fill:#fff;stroke:#263238;stroke-linecap:round;stroke-linejoin:round"></path><path d="M346.35,181.25s-3.5-11.75-4.25-13.5-7.5-8.75-7.5-8.75-2.5-1.75-2.5.25v3s-4.5-2-4.75-.75,1.25,3.75,1.25,3.75-4.75-1.75-3.75.75,4.75,7.5,4.75,7.5l1.25,3a33.76,33.76,0,0,0-4.25-3c-1.5-.75-3.25-.5-3,.75s4.76,3.72,5.38,4.36,3.87,4.89,5.62,6.89a51.44,51.44,0,0,0,5.25,5.25c1.25,1,4,1.75,5,2.25s25,41,27.75,44,8.75,6.5,14,4,6.5-11.25,2.75-18.5-17.5-19.75-22.5-23.75S348.6,186,348.6,186Z" style="fill:#fff;stroke:#263238;stroke-linecap:round;stroke-linejoin:round"></path><path d="M328.6,165.25s3.5,3.25,4.75,5.75,2.25,4.75,2.25,4.75" style="fill:none;stroke:#263238;stroke-linecap:round;stroke-linejoin:round"></path><path d="M332.1,162.25s4,4.25,5,5.75a50.82,50.82,0,0,1,2.75,5.75" style="fill:none;stroke:#263238;stroke-linecap:round;stroke-linejoin:round"></path></g><g id="freepik--character-1--inject-9"><path d="M130.6,184.22a84.36,84.36,0,0,0-2.79,10.53,29.18,29.18,0,0,0,.31,8.68l-19.52-9.3s4-17.66,5-19.52a45.09,45.09,0,0,1,4-5.58Z" style="fill:#fff;stroke:#263238;stroke-linecap:round;stroke-linejoin:round"></path><path d="M113.91,174l1.59,4.51,12.9,13.34c.88-3.66,2.2-7.62,2.2-7.62l-9.8-11.44-4.55-2.08A35.11,35.11,0,0,0,113.91,174Z" style="fill:#263238;stroke:#263238;stroke-linecap:round;stroke-linejoin:round"></path><path d="M115.76,303.73l11.7,39.33s3.24-2.7,10.73-4.87c10.08-2.93,21.78,2.27,21.78,2.27l-5.53-40.31s-11.7-5.52-21.78-3.9A37.65,37.65,0,0,0,115.76,303.73Z" style="fill:#fff;stroke:#263238;stroke-linecap:round;stroke-linejoin:round"></path><path d="M154.44,300.15s-11.7-5.52-21.78-3.9a37.65,37.65,0,0,0-16.9,7.48l3.81,12.81a12.23,12.23,0,0,0,3.16-1.53l1.85,4.3a24.19,24.19,0,0,0,4.71-7.58c1.84-4.71,6.14-9.83,8-9.42s6.15,9.22,10,10.65c3.07,1.13,6.13.09,8.6-2.1Z" style="fill:#263238;stroke:#263238;stroke-linecap:round;stroke-linejoin:round"></path><path d="M128.44,333.63s17.88-9.42,35.43,3.26c0,0-6.83,32.18-9.43,41.93s-23.73,66.32-23.73,66.32,8.45,14.62,10.4,17.22,6.83,5.21,6.83,5.21a3,3,0,0,1-2.92,1.95c-2.28,0-10.73,1.62-12.36,0s-4.55-7.48-6.17-8.78a23.59,23.59,0,0,0-3.58-2.28v10.73h-2.27s-1.63-9.1-2.93-13-1.3-5.53-.33-8.13a14.71,14.71,0,0,1,3.58-4.88s2.93-30.23,2.93-41.6,1-25.36,2.92-32.51,2.6-10.4,2.6-10.4l-4.55-24.39Z" style="fill:#263238;stroke:#263238;stroke-linecap:round;stroke-linejoin:round"></path><path d="M69.92,288.12a133.67,133.67,0,0,0,12.36,37.06c9.75,19.18,17.55,30.23,17.55,30.23l29.58-15.27s-7.8-36.41-15-47.79S79.35,271.22,69.92,288.12Z" style="fill:#fff;stroke:#263238;stroke-linecap:round;stroke-linejoin:round"></path><path d="M114.46,292.35c-7.15-11.38-35.11-21.13-44.54-4.23a125.36,125.36,0,0,0,5.52,21c1.77-1.35,5.06-3.52,7.35-3.09,3.28.61,6.76,7.78,11.47,8s9.83-10.45,13.11-9.63,7,11.47,9.42,12.29,5.94-1.64,5.94-1.64l1,2.41C121.05,307.73,117.69,297.49,114.46,292.35Z" style="fill:#263238;stroke:#263238;stroke-linecap:round;stroke-linejoin:round"></path><path d="M130.71,329.73s1.95,32.19.33,37.71-29.58,76.4-29.58,76.4,8.45,18.2,10.4,20.47,9.43,4.56,7.15,5.53-15.93,1.3-17.23,0-4.88-4.22-6.5-6.5a9.48,9.48,0,0,0-2.93-2.93v8.46H90.4s-2-7.81-2.92-11.06,5.2-17.88,5.2-17.88,1.62-21.78,1.62-37.05,5.21-35.44,5.21-35.44l-14-21.13S96.58,322.91,130.71,329.73Z" style="fill:#263238;stroke:#263238;stroke-linecap:round;stroke-linejoin:round"></path><path d="M194.94,276.52a17.4,17.4,0,0,0-2.34-2.08,6.08,6.08,0,0,0,.85-.29c3.58-1.63-8.45-4.56-11.38-5.86s-16.57,1.3-16.57,1.3l-29.26-7.47L130.06,265l15.28,13.66,19.51-2.6a31.26,31.26,0,0,0,3.54.95,8.9,8.9,0,0,0,3.79,2.07,9.62,9.62,0,0,0,7.23-1.37s-1.95,6.83-.32,8.46,4.55-8.13,4.55-8.13v6.5c0,2.93.65,4.55,2,2.93s1.63-7.81,1.63-7.81a37.11,37.11,0,0,0,2.6,5.21c1,1.3,2,2.18,2.6.23s-2.32-8.1-2.32-8.1,5.89,4.29,6.87,4.29S196.89,278.8,194.94,276.52Z" style="fill:#fff;stroke:#263238;stroke-linecap:round;stroke-linejoin:round"></path><path d="M192.6,274.44s-3.14.6-4.15.09-5.85-2.29-5.85-2.29-6.11,3.3-8.4,3.81a11.08,11.08,0,0,1-3.82.26" style="fill:none;stroke:#263238;stroke-linecap:round;stroke-linejoin:round"></path><path d="M86.29,254.24,40.67,281.62s2.92.33,5.2,5.2,4.55,18.53,14,16.58,12-16.58,18.2-7.47S87.8,315.43,94,311.2s10.73-17.22,15-11.7,5.85,17.56,14,14.63,9.1-15.6,15-12.68,10.08,14,18.53,11.7,12.68-18.85,12.68-18.85L142.68,267Z" style="fill:#FFA500;stroke:#263238;stroke-linecap:round;stroke-linejoin:round"></path><line x1="77.62" y1="285.73" x2="88.78" y2="270.24" style="fill:none;stroke:#263238;stroke-linecap:round;stroke-linejoin:round"></line><line x1="72.85" y1="292.35" x2="75.25" y2="289.02" style="fill:none;stroke:#263238;stroke-linecap:round;stroke-linejoin:round"></line><line x1="129.09" y1="269.59" x2="133.31" y2="282.6" style="fill:none;stroke:#263238;stroke-linecap:round;stroke-linejoin:round"></line><line x1="110.96" y1="277.83" x2="110.56" y2="280.65" style="fill:none;stroke:#263238;stroke-linecap:round;stroke-linejoin:round"></line><line x1="112.18" y1="269.27" x2="111.43" y2="274.53" style="fill:none;stroke:#263238;stroke-linecap:round;stroke-linejoin:round"></line><path d="M115.42,189.79A88.88,88.88,0,0,1,136.8,205.6c10.53,10.53,14.25,23.23,12.08,29.74s-7.44,12.09-7.44,12.09L142.68,267s-11.46,4.95-32.84,1.24-23.55-13.95-23.55-13.95,7.44-11.77,7.44-22.31-1.86-30.05,3.4-39.66S115.42,189.79,115.42,189.79Z" style="fill:#263238;stroke:#263238;stroke-linecap:round;stroke-linejoin:round"></path><path d="M140.51,140.22s4.65,6.5,4.65,10.22,0,10.54,1.55,12.09,5.27.93,3.72,4.64-3.41,4.65-3.41,4.65-1.24,7.75-3.72,12.09-6.19,6.19-11.46,4c-3.17-1.3-11.16-6.5-13.64-9.6s-4-8.37-4-8.37l8.36-30.67Z" style="fill:#fff;stroke:#263238;stroke-linecap:round;stroke-linejoin:round"></path><path d="M134.63,160.05s3.71-2.48,6.5-.31" style="fill:none;stroke:#263238;stroke-linecap:round;stroke-linejoin:round;stroke-width:2px"></path><path d="M139.89,149.82a7.63,7.63,0,0,0-6.19,5.58" style="fill:none;stroke:#263238;stroke-linecap:round;stroke-linejoin:round;stroke-width:2px"></path><path d="M143,173.37s-5.88,1.55-9.6-3.1c0,0-.31,6.82,2.79,7.75S143,173.37,143,173.37Z" style="fill:#263238;stroke:#263238;stroke-linecap:round;stroke-linejoin:round"></path><path d="M129.36,143.32a236.33,236.33,0,0,0-9.61,31.6c-3.4,15.8,2.17,25.41,2.17,25.41s-25.4-5-31.91-8.37-9-7.43-8.68-11.46,4.65-16.73,9-24.48,9.29-11.47,22.31-16.11S129.36,143.32,129.36,143.32Z" style="fill:#FFA500;stroke:#263238;stroke-linecap:round;stroke-linejoin:round"></path><path d="M93.5,161.47s-5.73,11.47-6.18,18.09" style="fill:none;stroke:#263238;stroke-linecap:round;stroke-linejoin:round"></path><line x1="102.77" y1="155.74" x2="99.68" y2="168.09" style="fill:none;stroke:#263238;stroke-linecap:round;stroke-linejoin:round"></line><path d="M110.27,186.46A13.31,13.31,0,0,0,112,191" style="fill:none;stroke:#263238;stroke-linecap:round;stroke-linejoin:round"></path><path d="M123.5,147.36s-8.82,13.67-12.35,25.58a30.39,30.39,0,0,0-1.36,9.45" style="fill:none;stroke:#263238;stroke-linecap:round;stroke-linejoin:round"></path><path d="M105.89,164.39c-1.44,4.18-2.68,8.75-2.68,12.08" style="fill:none;stroke:#263238;stroke-linecap:round;stroke-linejoin:round"></path><path d="M110.27,153.53s-1.53,3.24-3.16,7.5" style="fill:none;stroke:#263238;stroke-linecap:round;stroke-linejoin:round"></path><path d="M61.5,191s3.1-14.56,48.34-35.32,77.46-23.55,77.46-23.55S170,126.89,160,126.58s-20.76-.31-20.76-.31-27-17.35-39.66-22.31-17-3.09-27.57,3.72S52.52,121,51.9,126s-5,26-4.65,30.37,5.27,16.73,5.27,16.73,8-1.24,8.67-5-1.24,0-3.1,0-5-6.5-5-8.36,6.81-19.83,13.94-28.2,18-11.15,18-11.15,4.34,19.52,4.65,22.31.31,4-9.3,15.49S59.64,180.5,61.5,191Z" style="fill:#263238;stroke:#263238;stroke-linecap:round;stroke-linejoin:round"></path><path d="M136.25,124.35c-4.64-2.92-13.9-8.64-22.66-13.49a84.55,84.55,0,0,0-26.4,19.33c1.15,5.32,2.35,11.08,2.51,12.51a6.21,6.21,0,0,1-1,4.58C94.14,143.14,110.63,131.73,136.25,124.35Z" style="fill:#FFA500;stroke:#263238;stroke-linecap:round;stroke-linejoin:round"></path><path d="M145.34,210.76S120,195.48,111.21,194.5s-11,8.78-9.75,14,11.37,12.68,24.38,17.23,21.13,6.83,23.4,5.85,48.11-25,48.11-25,5.85,1,7.48,1,7.48-3.91,7.48-3.91-2.93,2.6,1,2.28,4.88-2.28,5.2-3.25,2-8.78.33-9.1a15,15,0,0,1-3.37-1.24s3.56-3,5.51-3.67,5.37-2.71,2.45-3.36-8.19,1.49-12.09,4.74-8.76,7.43-9.73,8.4a13.37,13.37,0,0,1-3.58,1.95Z" style="fill:#fff;stroke:#263238;stroke-linecap:round;stroke-linejoin:round"></path></g></svg>